<?xml version="1.0" encoding="utf-8"?>
<!-- Generator: Adobe Illustrator 16.0.0, SVG Export Plug-In . SVG Version: 6.00 Build 0)  -->
<!DOCTYPE svg PUBLIC "-//W3C//DTD SVG 1.1//EN" "http://www.w3.org/Graphics/SVG/1.1/DTD/svg11.dtd">
<svg version="1.1" id="Layer_1" xmlns="http://www.w3.org/2000/svg" xmlns:xlink="http://www.w3.org/1999/xlink" x="0px" y="0px"
	 width="49.74px" height="49.783px" viewBox="0 0 49.74 49.783" enable-background="new 0 0 49.74 49.783" xml:space="preserve">
<g>
	<polygon fill="#ED1C24" points="26.032,22.188 26.032,14.426 10.03,24.958 26.032,35.491 26.032,27.73 39.596,27.73 39.596,22.188 
			"/>
	<path fill="#ED1C24" d="M24.871,0.044C11.157,0.044,0,11.201,0,24.914s11.157,24.869,24.871,24.869
		c13.712,0,24.869-11.156,24.869-24.869S38.583,0.044,24.871,0.044z M24.871,45.244c-11.21,0-20.331-9.12-20.331-20.33
		s9.121-20.33,20.331-20.33c11.209,0,20.329,9.12,20.329,20.33S36.081,45.244,24.871,45.244z"/>
</g>
</svg>
