<?xml version="1.0" encoding="utf-8"?>
<!-- Generator: Adobe Illustrator 16.0.0, SVG Export Plug-In . SVG Version: 6.00 Build 0)  -->
<!DOCTYPE svg PUBLIC "-//W3C//DTD SVG 1.1//EN" "http://www.w3.org/Graphics/SVG/1.1/DTD/svg11.dtd">
<svg version="1.1" id="Layer_1" xmlns="http://www.w3.org/2000/svg" xmlns:xlink="http://www.w3.org/1999/xlink" x="0px" y="0px"
	 width="72px" height="51.967px" viewBox="0 0 72 51.967" enable-background="new 0 0 72 51.967" xml:space="preserve">
<polygon fill="#ED1C24" points="52.737,37.807 -0.038,37.807 0.04,0 52.819,0 "/>
<rect x="6.142" y="5.678" fill="#F9C511" width="40.576" height="27.485"/>
<polygon fill="#ED1C24" points="72.039,51.967 17.964,51.967 -0.038,37.807 52.737,37.807 "/>
<path fill="#4BBFAE" d="M17.262,41.002c0.326,0.236,0.396,0.428,0.16,0.428h-3.063c-0.237,0-0.693-0.191-1.018-0.428l-3.214-2.365
	c-0.325-0.238-0.391-0.43-0.151-0.43h3.061c0.238,0,0.688,0.191,1.012,0.43L17.262,41.002z"/>
<path fill="#4BBFAE" d="M22.106,41.002c0.326,0.236,0.395,0.428,0.16,0.428h-3.062c-0.237,0-0.691-0.191-1.019-0.428l-3.213-2.365
	c-0.325-0.238-0.39-0.43-0.153-0.43h3.062c0.236,0,0.687,0.191,1.012,0.43L22.106,41.002z"/>
<path fill="#4BBFAE" d="M26.831,41.002c0.325,0.236,0.396,0.428,0.159,0.428h-3.062c-0.236,0-0.692-0.191-1.018-0.428l-3.215-2.365
	c-0.323-0.238-0.391-0.43-0.152-0.43h3.062c0.235,0,0.688,0.191,1.011,0.43L26.831,41.002z"/>
<path fill="#4BBFAE" d="M31.679,41.002c0.322,0.236,0.395,0.428,0.158,0.428h-3.062c-0.237,0-0.695-0.191-1.02-0.428l-3.213-2.365
	c-0.324-0.238-0.391-0.43-0.151-0.43h3.062c0.237,0,0.688,0.191,1.011,0.43L31.679,41.002z"/>
<path fill="#4BBFAE" d="M36.55,41.002c0.323,0.236,0.396,0.428,0.158,0.428h-3.061c-0.238,0-0.693-0.191-1.019-0.428l-3.214-2.365
	c-0.323-0.238-0.39-0.43-0.152-0.43h3.062c0.236,0,0.687,0.191,1.012,0.43L36.55,41.002z"/>
<path fill="#4BBFAE" d="M41.395,41.002c0.326,0.236,0.396,0.428,0.159,0.428h-3.062c-0.237,0-0.692-0.191-1.018-0.428l-3.213-2.365
	c-0.324-0.238-0.392-0.43-0.153-0.43h3.061c0.239,0,0.689,0.191,1.013,0.43L41.395,41.002z"/>
<path fill="#4BBFAE" d="M46.12,41.002c0.323,0.236,0.396,0.428,0.158,0.428h-3.062c-0.237,0-0.694-0.191-1.019-0.428l-3.213-2.365
	c-0.325-0.238-0.392-0.43-0.152-0.43h3.062c0.237,0,0.687,0.191,1.01,0.43L46.12,41.002z"/>
<path fill="#4BBFAE" d="M50.965,41.002c0.324,0.236,0.396,0.428,0.157,0.428h-3.062c-0.235,0-0.69-0.191-1.017-0.428l-3.215-2.365
	c-0.324-0.238-0.39-0.43-0.153-0.43h3.062c0.237,0,0.689,0.191,1.014,0.43L50.965,41.002z"/>
<path fill="#4BBFAE" d="M23.577,45.621c0.322,0.238,0.387,0.43,0.151,0.43h-3.062c-0.238,0-0.687-0.191-1.01-0.43l-3.216-2.363
	c-0.325-0.238-0.395-0.432-0.156-0.432h3.061c0.237,0,0.69,0.193,1.017,0.432L23.577,45.621z"/>
<path fill="#4BBFAE" d="M28.423,45.621c0.322,0.238,0.387,0.43,0.151,0.43h-3.062c-0.239,0-0.688-0.191-1.009-0.43l-3.218-2.363
	c-0.326-0.238-0.395-0.432-0.156-0.432h3.062c0.236,0,0.69,0.193,1.016,0.432L28.423,45.621z"/>
<path fill="#4BBFAE" d="M33.147,45.621c0.322,0.238,0.387,0.43,0.151,0.43h-3.062c-0.235,0-0.686-0.191-1.01-0.43l-3.217-2.363
	c-0.325-0.238-0.392-0.432-0.155-0.432h3.062c0.237,0,0.69,0.193,1.016,0.432L33.147,45.621z"/>
<path fill="#4BBFAE" d="M37.993,45.621c0.322,0.238,0.389,0.43,0.15,0.43h-3.061c-0.238,0-0.688-0.191-1.012-0.43l-3.215-2.363
	c-0.325-0.238-0.394-0.432-0.157-0.432h3.062c0.237,0,0.689,0.193,1.014,0.432L37.993,45.621z"/>
<path fill="#4BBFAE" d="M42.866,45.621c0.322,0.238,0.389,0.43,0.15,0.43h-3.061c-0.24,0-0.689-0.191-1.012-0.43l-3.215-2.363
	c-0.327-0.238-0.396-0.432-0.157-0.432h3.062c0.237,0,0.689,0.193,1.016,0.432L42.866,45.621z"/>
<path fill="#4BBFAE" d="M47.711,45.621c0.323,0.238,0.387,0.43,0.15,0.43H44.8c-0.237,0-0.688-0.191-1.01-0.43l-3.215-2.363
	c-0.326-0.238-0.394-0.432-0.157-0.432h3.062c0.236,0,0.688,0.193,1.015,0.432L47.711,45.621z"/>
<path fill="#4BBFAE" d="M52.436,45.621c0.321,0.238,0.389,0.43,0.15,0.43h-3.06c-0.24,0-0.689-0.191-1.015-0.43l-3.213-2.363
	c-0.325-0.238-0.394-0.432-0.154-0.432h3.059c0.238,0,0.69,0.193,1.015,0.432L52.436,45.621z"/>
<path fill="#4BBFAE" d="M57.281,45.621c0.322,0.238,0.388,0.43,0.15,0.43H54.37c-0.237,0-0.688-0.191-1.01-0.43l-3.217-2.363
	c-0.324-0.238-0.393-0.432-0.155-0.432h3.061c0.238,0,0.692,0.193,1.017,0.432L57.281,45.621z"/>
</svg>
