<?xml version="1.0" encoding="utf-8"?>
<!-- Generator: Adobe Illustrator 16.0.0, SVG Export Plug-In . SVG Version: 6.00 Build 0)  -->
<!DOCTYPE svg PUBLIC "-//W3C//DTD SVG 1.1//EN" "http://www.w3.org/Graphics/SVG/1.1/DTD/svg11.dtd">
<svg version="1.1" id="Layer_1" xmlns="http://www.w3.org/2000/svg" xmlns:xlink="http://www.w3.org/1999/xlink" x="0px" y="0px"
	 width="159.595px" height="125.196px" viewBox="0 0 159.595 125.196" enable-background="new 0 0 159.595 125.196"
	 xml:space="preserve">
<g>
	<g>
		<path fill-rule="evenodd" clip-rule="evenodd" fill="#F9C511" d="M90.795,30.992c-0.136,1.872-0.249,3.745-0.412,5.613
			c-0.329,3.762-0.674,7.527-1.037,11.287c-0.084,0.869-0.315,1.721-0.406,2.59c-0.104,0.979-0.687,1.666-1.232,2.408
			c-0.452,0.611-1.064,0.832-1.698,0.627c-2.055-0.662-3.364-1.5-3.373-3.789C82.6,38.864,83.354,27.97,83.669,17.111
			c0.051-1.749,0.317-3.494,0.294-5.238c-0.01-0.791,0.165-1.457,0.495-2.099c0.755-1.464,2.319-2.341,4.035-1.28
			c1.311,0.805,1.587,1.256,2.599,2.551c1.361,1.743,2.214,4.533,2.991,6.641c1.101,2.985,2.311,5.938,3.897,8.701
			c0.272,0.472,0.575,0.927,1.008,1.623c4.092-7.197,5.518-18.474,11.35-24.298c0.228-0.228,0.516-0.391,0.753-0.608
			c1.341-1.228,2.975-0.88,3.787,0.774c2.82,5.765,1.874,15.417,2.562,21.745c0.516,4.73,1.026,9.462,1.358,14.208
			c0.259,3.697-0.054,9.617,0.625,12.859c0.39,1.857,0.476,3.334-0.823,4.73c-0.758,0.812-1.512,1.637-2.784,1.502
			c-0.044-0.006-0.096,0.039-0.14,0.027c-4.043-1.4-4.521-4.508-4.906-8.271c-0.432-4.195-1.084-8.367-1.501-12.566
			c-0.278-2.799-0.419-7.451-1.782-10.692c-0.894-0.245-2.103,3.556-2.735,4.757c-1.159,2.202-2.092,4.423-3.462,6.515
			c-0.577,0.885-1.08,2.102-1.969,2.711c-0.912,0.625-1.425-0.234-2.011-0.926c-1.988-2.338-3.558-4.76-4.98-7.477
			c-0.058-0.11-1.049-2.156-1.172-2.12C91.037,30.917,90.917,30.955,90.795,30.992z"/>
		<path fill-rule="evenodd" clip-rule="evenodd" fill="#F9C511" d="M39.275,39.364c-0.799,1.08-0.626,3.15-0.643,4.164
			c-0.076,4.648-0.949,9.24-0.992,13.912c-0.047,5.049-2.68,6.244-5.722,6.084c-4.099-0.215-2.733-10.361-2.546-12.727
			c0.518-6.475,0.98-12.764,1.189-19.273c0.27-8.456,1.281-14.176,1.387-25.668c0.023-2.69,1.219-5.869,4.413-5.896
			c3.81-0.032,4.511,2.544,4.446,5.787c-0.121,5.959,0.136,11.917-0.015,17.879c-0.017,0.542-0.022,1.131,0.05,1.632
			c-0.146-1.035,5.502-7.526,6.371-8.602c3.026-3.744,6.405-7.207,9.528-10.875c0.505-0.595,1.096-1.118,1.643-1.678
			c1.404-1.438,4.854-1.322,6.375-0.082c3.81,3.112-2.673,9.31-4.605,11.648c-4.468,5.402-8.662,11.086-13.252,16.366
			c0.419,0.203,0.716,0.418,1.046,0.494c3.79,0.863,22.247,3.967,16.187,9.812c-3.081,2.971-8.289,0.697-12.058-0.082
			C50.887,42.015,39.711,38.772,39.275,39.364z"/>
		<path fill-rule="evenodd" clip-rule="evenodd" fill="#4BBFAE" d="M10.633,71.882c2.441-0.471,6.523-2.57,8.84-0.691
			c2.791,2.266,0.463,6.912-2.159,7.99c-0.75,0.311-6.769,0.346-6.854,0.984c-0.058,0.43-0.154,0.828-0.158,1.227
			c-0.015,2.115-0.057,4.232,0.01,6.346c0.065,2.023,0.243,4.043,0.385,6.061c0.058,0.828,0.145,1.654,0.229,2.479
			c0.088,0.867,0.146,1.744,0.715,2.539c3.187,0.082,6.158-1.488,9.251-2.039c0.662-0.117,1.412,0.266,2.121,0.422
			c0.777,0.172,1.375,0.525,1.481,1.41c0.014,0.127,0.097,0.277,0.195,0.359c0.773,0.627,1.003,1.445,0.693,2.35
			c-1.21,3.529-5.374,4.281-8.577,4.857c-3.651,0.654-6.534,1.348-10.228,1.428c-0.895,0.018-1.252-0.492-1.343-1.258
			C4.153,97.228,3.2,88.091,2.576,78.931c-0.363-5.314-0.872-10.83-1.281-16.213C1.092,60.036-0.702,51.71,2.317,49.985
			c0.155-0.088,0.334-0.16,0.51-0.186c2.705-0.395,5.419-0.729,8.112-1.189c1.53-0.262,3.029-0.717,4.538-1.104
			c0.977-0.252,1.934-0.592,2.922-0.801c3.803-0.809,4.126,2.352,2.826,5.129c-1.823,3.9-6.679,4.172-10.405,4.725
			c-1.177,0.172-1.299,0.277-1.222,1.514C9.654,59.005,10.435,71.921,10.633,71.882z"/>
		<path fill-rule="evenodd" clip-rule="evenodd" fill="#ED1C24" d="M148.366,81.04c-2.051-0.266-3.95-0.512-5.982-0.773
			c-0.822,3.088-1.46,14.816-5.745,15.08c-1.404,0.084-2.568-0.445-3.298-1.564c-0.356-0.549-0.414-1.445-0.287-2.125
			c0.246-1.299,0.782-2.551,1.158-3.799c1.787-5.934,7.095-23.775,8.319-27.387c1.123-3.322,1.905-6.707,3.087-10.004
			c0.535-1.49,1.902-1.9,3.188-2.238c1.014-0.264,2.016-0.141,2.742,0.996c2.279,3.561,2.375,8.92,2.957,13.01
			c0.77,5.426,3.269,23.523,3.827,27.107c0.536,3.441,2.942,10.893-0.764,13.436c-1.286,0.885-3.281,1.426-4.839,1.176
			c-2.713-0.436-2.562-7.217-2.875-9.529C149.27,90.097,149.408,85.278,148.366,81.04z M147.923,75.403
			c0.405-1.662-0.194-9.074-0.959-10.572c-0.993,2.787-1.931,6.654-2.915,9.422C145.406,74.655,146.614,75.013,147.923,75.403z"/>
		<path fill-rule="evenodd" clip-rule="evenodd" fill="#4BBFAE" d="M47.749,92.935c-1.032-4.309-3.852-8.203-6.939-11.264
			c-1.374-1.359-13.016-6.951-9.386-9.537c2.268-1.611,9.488,4.803,9.867-0.189c0.208-2.754-3.227-5.412-5.619-6.111
			c-3.474-1.012-6.903-0.596-9.678,1.732c-3.589,3.014-4.475,7.221-2.738,11.535c1.493,3.705,5.691,5.16,8.89,7.057
			c1.873,1.111,3.607,2.547,5.258,3.973c1.767,1.523,4.502,6.215,2.535,8.523c-2.096,2.459-6.561-2.262-7.204-4.242
			c-0.079-0.242-0.353-0.42-0.51-0.646c-0.231-0.332-0.519-0.652-0.646-1.023c-0.432-1.238-1.335-2.096-2.287-2.895
			c-1.562-1.307-3.482-1.035-4.422,0.703c-0.343,0.637-0.458,1.512-0.371,2.242c0.961,7.939,11.404,18.42,19.436,12.064
			c1.969-1.559,4.068-5.172,4.209-7.719C48.224,95.704,48.076,94.3,47.749,92.935z"/>
		<path fill-rule="evenodd" clip-rule="evenodd" fill="#4BBFAE" d="M59.531,76.304c0.246-4.549,0.74-9.113,1.969-13.135
			c0.722-2.355,2.61-5.061,4.759-6.365c4.274-2.596,8.77,1.168,11.131,4.303c0.764,1.014,1.086,2.209,1.44,3.404
			c0.208,0.701,0.613,1.344,0.833,2.041c2.101,6.703,3.987,31.42-7.063,32.08c-5.328,0.318-9.278-5.168-10.962-9.562
			C60.193,85.296,59.301,80.567,59.531,76.304z M66.453,77.462c0.189,2.725,0.584,5.18,0.885,6.451
			c0.706,2.982,3.199,6.078,6.114,3.078c2.404-2.475,1.288-6.934,0.961-9.859c-0.273-2.438-1.386-13.971-5.412-11.662
			C66.42,66.946,66.117,72.632,66.453,77.462z"/>
		<path fill-rule="evenodd" clip-rule="evenodd" fill="#ED1C24" d="M84.215,57.249c1.583-1.539,5.2-1.65,7.204-2.082
			c2.505-0.539,5.481-1.746,7.605,0.375c1.814,1.811,1.283,4.557-1.158,5.439c-1.384,0.5-2.706,1.174-4.1,1.633
			c-1.034,0.338-2.136,0.49-3.218,0.658c-0.946,0.146-1.128,0.268-1.014,1.211c0.341,2.793,0.224,5.1,0.603,7.887
			c0.123,0.898,0.431,1.082,1.326,0.848c1.326-0.348,2.715-0.68,4.092-1.016c3.211-0.783,3.292,1.453,3.579,3.25
			c0.156,0.973,0.174,1.814-0.801,2.162c-1.854,0.664-3.709,1.338-5.583,1.947c-1.365,0.445-1.099,5.088-1.008,6.396
			c0.165,2.377,0.033,7.525,3.261,6.848c0.578-0.123,2.36-0.5,2.903-0.744c2.137-0.965,3.19,3.281,2.938,4.992
			c-0.473,3.168-5.725,3.846-8.315,4.631c-3.735,1.131-6.406-0.367-6.974-4.607c-0.889-6.637-1.582-12.99-2.061-19.67
			c-0.381-5.322-0.684-11.176-0.615-16.508C82.9,59.483,83.266,58.173,84.215,57.249z"/>
		<path fill-rule="evenodd" clip-rule="evenodd" fill="#ED1C24" d="M104.112,84.954c1.438,0.34,2.658,2.844,3.1,3.893
			c0.589,1.402,1.125,2.764,2.679,3.26c1.339,0.43,2.785-0.266,3.473-1.525c1.335-2.441-0.112-5.857-1.962-7.561
			c-1.453-1.34-3.035-2.537-4.504-3.861c-1.058-0.953-2.175-1.898-3.007-3.037c-4.014-5.486-3.241-13.824,3.781-16.416
			c2.771-1.021,5.711,0.258,7.933,1.885c1.835,1.34,2.657,4.439,2.492,6.631c-0.187,2.508-3.628,2.295-5.062,0.875
			c-0.426-0.424-0.833-0.867-1.272-1.273c-0.647-0.594-0.837-0.586-1.527-0.008c-0.537,0.451-0.917,0.924-0.988,1.719
			c-0.192,2.123,0.429,3.891,2.256,4.975c2.045,1.219,3.843,2.723,5.621,4.293c1.603,1.416,3.376,3.016,4.027,5.125
			c1.084,3.504,0.699,8.316-1.733,11.207c-2.215,2.637-5.272,3.723-8.615,3.752c-2.64,0.021-5.877-0.59-7.299-3.086
			c-0.807-1.416-1.744-3.443-1.923-5.059c-0.154-1.389-0.013-4.234,1.037-5.271C103.126,84.968,103.632,84.843,104.112,84.954z"/>
		<path fill-rule="evenodd" clip-rule="evenodd" fill="#4BBFAE" d="M47.09,61.323c-1.233,0.324-2.299,0.559-3.337,0.889
			c-1.483,0.471-1.989,0.314-2.737-0.996c-0.25-0.436-0.541-0.857-0.707-1.324c-0.148-0.42-0.282-0.918-0.195-1.334
			c0.203-0.98,0.507-1.945,0.831-2.893c0.593-1.729,6.634-3.184,8.326-3.43c2.418-0.352,5.901-1.594,8.193-1.547
			c5.325,0.107,1.876,8.975-1.87,9.41c-0.44,0.049-0.878,0.137-1.397,0.221c0.25,1.721,0.502,3.307,0.709,4.898
			c1.343,10.33,1.434,20.885,3.381,31.127c0.187,0.992-0.874,2.795-1.479,3.508c-0.729,0.861-1.801,1.574-2.932,1.758
			c-2.037,0.328-2.402-1.656-2.666-3.225c-0.153-0.906-0.22-1.826-0.37-2.732c-0.758-4.574-1.094-9.1-1.611-13.699
			C49.04,80.296,46.723,61.419,47.09,61.323z"/>
		<path fill-rule="evenodd" clip-rule="evenodd" fill="#ED1C24" d="M127.795,54.669c-2.099,1.609-6.373,0.824-7.007-1.998
			c-0.446-1.988,1.264-4.912,3.18-5.473c3.932-1.148,7.649-2.068,11.724-2.49c0.626-0.066,1.269-0.092,1.871-0.26
			c3.712-1.037,6.17,7.832,1.3,8.039c-0.912,0.039-1.83,0.195-2.722,0.41c-0.909,0.221-1.309,0.859-1.298,1.84
			c0.099,8.574-1.543,17.203-2.345,25.73c-0.278,2.977-0.573,5.953-0.918,8.922c-0.153,1.322-0.42,2.631-0.669,3.941
			c-0.128,0.666-0.301,1.326-0.513,1.969c-0.333,0.998-1.326,1.346-2.094,1.225c-0.895-0.139-1.934-0.121-2.698-0.879
			c-1.961-1.941-0.719-6.018-0.504-8.426c0.345-3.805,0.689-7.609,1.123-11.404c0.75-6.568,1.37-13.104,1.569-19.713
			C127.807,55.749,127.795,55.392,127.795,54.669z"/>
		<path fill-rule="evenodd" clip-rule="evenodd" fill="#F9C511" d="M69.886,36.392c-0.057-5.269-0.162-10.537-0.04-15.804
			c0.079-3.396-0.444-12.561,5.132-11.85c5.828,0.741,4.908,7.352,4.775,11.588c-0.17,5.4-0.058,10.808-0.261,16.207
			c-0.144,3.807,0.456,9.949-3.16,12.424c-3.147,2.154-6.438-3.318-6.423-5.949C69.925,40.804,69.909,38.599,69.886,36.392z"/>
	</g>
	<g>
		<path fill="#143E4E" d="M13.879,125.136v-7.115h1.39v7.115H13.879z"/>
		<path fill="#143E4E" d="M17.829,125.136v-7.115h1.39v5.879h3.227v1.236H17.829z"/>
		<path fill="#143E4E" d="M24.555,125.136v-7.115h1.39v5.879h3.227v1.236H24.555z"/>
		<path fill="#143E4E" d="M33.736,125.196c-1.46,0-2.618-0.99-2.618-2.498v-4.678h1.388v4.629c0,0.818,0.48,1.309,1.23,1.309
			s1.238-0.49,1.238-1.309v-4.629h1.381v4.678C36.355,124.206,35.195,125.196,33.736,125.196z"/>
		<path fill="#143E4E" d="M40.816,125.196c-1.078,0-1.897-0.229-2.598-0.941l0.9-0.896c0.448,0.449,1.059,0.6,1.719,0.6
			c0.818,0,1.259-0.311,1.259-0.877c0-0.252-0.071-0.461-0.22-0.604c-0.141-0.127-0.3-0.199-0.63-0.248l-0.86-0.123
			c-0.609-0.09-1.059-0.277-1.378-0.588c-0.341-0.338-0.51-0.799-0.51-1.398c0-1.271,0.939-2.16,2.478-2.16
			c0.98,0,1.689,0.24,2.299,0.832l-0.879,0.869c-0.45-0.432-0.99-0.49-1.459-0.49c-0.74,0-1.1,0.408-1.1,0.9
			c0,0.18,0.06,0.367,0.209,0.51c0.141,0.131,0.371,0.238,0.66,0.277l0.84,0.123c0.648,0.09,1.059,0.27,1.357,0.549
			c0.381,0.359,0.551,0.879,0.551,1.51C43.455,124.417,42.305,125.196,40.816,125.196z"/>
		<path fill="#143E4E" d="M48.548,119.261v5.875H47.16v-5.875h-1.859v-1.24h5.107v1.24H48.548z"/>
		<path fill="#143E4E" d="M56.296,125.136l-1.391-2.838h-0.999v2.838h-1.39v-7.115h2.788c1.45,0,2.309,0.992,2.309,2.182
			c0,0.996-0.608,1.615-1.299,1.867l1.59,3.066H56.296z M55.216,119.261h-1.31v1.879h1.31c0.609,0,1.009-0.391,1.009-0.938
			C56.225,119.651,55.825,119.261,55.216,119.261z"/>
		<path fill="#143E4E" d="M64.47,125.136l-0.42-1.26h-2.529l-0.429,1.26h-1.449l2.588-7.115h1.09l2.599,7.115H64.47z M62.811,120.12
			l-0.9,2.586h1.77L62.811,120.12z"/>
		<path fill="#143E4E" d="M69.951,119.261v5.875h-1.389v-5.875h-1.858v-1.24h5.106v1.24H69.951z"/>
		<path fill="#143E4E" d="M73.92,125.136v-7.115h1.39v7.115H73.92z"/>
		<path fill="#143E4E" d="M82.208,124.417c-0.499,0.498-1.108,0.779-1.918,0.779c-0.811,0-1.431-0.281-1.93-0.779
			c-0.719-0.721-0.699-1.609-0.699-2.836c0-1.232-0.02-2.121,0.699-2.838c0.499-0.502,1.119-0.783,1.93-0.783
			c0.81,0,1.419,0.281,1.918,0.783c0.72,0.717,0.71,1.605,0.71,2.838C82.918,122.808,82.928,123.696,82.208,124.417z
			 M81.179,119.579c-0.199-0.229-0.51-0.379-0.889-0.379c-0.381,0-0.701,0.15-0.9,0.379c-0.27,0.301-0.339,0.631-0.339,2.002
			c0,1.369,0.069,1.695,0.339,1.998c0.199,0.229,0.52,0.379,0.9,0.379c0.379,0,0.689-0.15,0.889-0.379
			c0.27-0.303,0.351-0.629,0.351-1.998C81.529,120.21,81.448,119.88,81.179,119.579z"/>
		<path fill="#143E4E" d="M89.491,125.136l-2.818-4.367v4.367h-1.39v-7.115h1.239l2.819,4.359v-4.359h1.389v7.115H89.491z"/>
		<path fill="#143E4E" d="M101.181,125.136l-0.521-0.619c-0.33,0.26-0.819,0.68-1.838,0.68c-1.57,0-2.349-0.818-2.349-2.156
			c0-0.91,0.658-1.5,1.278-1.912c-0.29-0.326-0.709-0.828-0.709-1.508c0-0.967,0.709-1.66,1.899-1.66
			c1.119,0,1.818,0.711,1.818,1.68c0,0.551-0.29,0.918-0.73,1.24c0,0-0.33,0.248-0.509,0.371l1.198,1.418
			c0.23-0.311,0.341-0.742,0.36-1.25h1.229c-0.049,0.92-0.261,1.65-0.76,2.209l1.279,1.508H101.181z M98.453,121.927
			c-0.431,0.303-0.722,0.582-0.722,1.092c0,0.588,0.48,1,1.08,1c0.42,0,0.729-0.131,1.06-0.42L98.453,121.927z M98.942,119.069
			c-0.392,0-0.591,0.252-0.591,0.582c0,0.258,0.22,0.51,0.471,0.799c0.1-0.061,0.299-0.199,0.299-0.199
			c0.23-0.162,0.41-0.35,0.41-0.6C99.531,119.321,99.312,119.069,98.942,119.069z"/>
		<path fill="#143E4E" d="M112.669,124.458c-0.471,0.469-1.14,0.678-1.88,0.678h-2.568v-7.115h2.568c0.74,0,1.409,0.209,1.88,0.682
			c0.799,0.799,0.72,1.777,0.72,2.846C113.389,122.62,113.468,123.657,112.669,124.458z M111.7,119.7
			c-0.24-0.289-0.561-0.439-1.04-0.439h-1.049v4.639h1.049c0.479,0,0.8-0.154,1.04-0.439c0.259-0.322,0.3-0.832,0.3-1.912
			S111.959,120.019,111.7,119.7z"/>
		<path fill="#143E4E" d="M115.742,125.136v-7.115h4.687v1.24h-3.297v1.67h2.808v1.238h-2.808v1.73h3.297v1.236H115.742z"/>
		<path fill="#143E4E" d="M124.935,125.196c-1.079,0-1.898-0.229-2.599-0.941l0.9-0.896c0.448,0.449,1.059,0.6,1.719,0.6
			c0.819,0,1.259-0.311,1.259-0.877c0-0.252-0.069-0.461-0.22-0.604c-0.142-0.127-0.301-0.199-0.631-0.248l-0.857-0.123
			c-0.611-0.09-1.06-0.277-1.38-0.588c-0.34-0.338-0.51-0.799-0.51-1.398c0-1.271,0.939-2.16,2.478-2.16
			c0.979,0,1.688,0.24,2.299,0.832l-0.88,0.869c-0.449-0.432-0.987-0.49-1.46-0.49c-0.738,0-1.097,0.408-1.097,0.9
			c0,0.18,0.059,0.367,0.208,0.51c0.141,0.131,0.371,0.238,0.66,0.277l0.84,0.123c0.648,0.09,1.06,0.27,1.358,0.549
			c0.379,0.359,0.55,0.879,0.55,1.51C127.572,124.417,126.423,125.196,124.935,125.196z"/>
		<path fill="#143E4E" d="M129.771,125.136v-7.115h1.39v7.115H129.771z"/>
		<path fill="#143E4E" d="M138.139,124.386c-0.567,0.592-1.248,0.811-2.007,0.811c-0.782,0-1.422-0.281-1.92-0.779
			c-0.721-0.721-0.7-1.609-0.7-2.836c0-1.232-0.021-2.121,0.7-2.838c0.498-0.502,1.118-0.783,1.92-0.783
			c1.647,0,2.487,1.08,2.679,2.279h-1.401c-0.16-0.668-0.568-1.039-1.277-1.039c-0.382,0-0.692,0.15-0.889,0.379
			c-0.272,0.301-0.342,0.631-0.342,2.002c0,1.369,0.069,1.707,0.342,2.006c0.196,0.232,0.507,0.371,0.889,0.371
			c0.42,0,0.759-0.15,0.987-0.4c0.231-0.26,0.321-0.578,0.321-0.949v-0.27h-1.309v-1.158h2.688v1.039
			C138.819,123.247,138.64,123.868,138.139,124.386z"/>
		<path fill="#143E4E" d="M145.383,125.136l-2.82-4.367v4.367h-1.387v-7.115h1.239l2.817,4.359v-4.359h1.391v7.115H145.383z"/>
	</g>
</g>
</svg>
