<svg enable-background="new 0 0 159.595 125.196" height="125.196" viewBox="0 0 159.595 125.196" width="159.595" xmlns="http://www.w3.org/2000/svg"><g clip-rule="evenodd" fill-rule="evenodd"><path d="m90.795 30.992c-.136 1.872-.249 3.745-.412 5.613-.329 3.762-.674 7.527-1.037 11.287-.084.869-.315 1.721-.406 2.59-.104.979-.687 1.666-1.232 2.408-.452.611-1.064.832-1.698.627-2.055-.662-3.364-1.5-3.373-3.789-.037-10.864.717-21.758 1.032-32.617.051-1.749.317-3.494.294-5.238-.01-.791.165-1.457.495-2.099.755-1.464 2.319-2.341 4.035-1.28 1.311.805 1.587 1.256 2.599 2.551 1.361 1.743 2.214 4.533 2.991 6.641 1.101 2.985 2.311 5.938 3.897 8.701.272.472.575.927 1.008 1.623 4.092-7.197 5.518-18.474 11.35-24.298.228-.228.516-.391.753-.608 1.341-1.228 2.975-.88 3.787.774 2.82 5.765 1.874 15.417 2.562 21.745.516 4.73 1.026 9.462 1.358 14.208.259 3.697-.054 9.617.625 12.859.39 1.857.476 3.334-.823 4.73-.758.812-1.512 1.637-2.784 1.502-.044-.006-.096.039-.14.027-4.043-1.4-4.521-4.508-4.906-8.271-.432-4.195-1.084-8.367-1.501-12.566-.278-2.799-.419-7.451-1.782-10.692-.894-.245-2.103 3.556-2.735 4.757-1.159 2.202-2.092 4.423-3.462 6.515-.577.885-1.08 2.102-1.969 2.711-.912.625-1.425-.234-2.011-.926-1.988-2.338-3.558-4.76-4.98-7.477-.058-.11-1.049-2.156-1.172-2.12-.121.037-.241.075-.363.112z" fill="#f9c511"/><path d="m39.275 39.364c-.799 1.08-.626 3.15-.643 4.164-.076 4.648-.949 9.24-.992 13.912-.047 5.049-2.68 6.244-5.722 6.084-4.099-.215-2.733-10.361-2.546-12.727.518-6.475.98-12.764 1.189-19.273.27-8.456 1.281-14.176 1.387-25.668.023-2.69 1.219-5.869 4.413-5.896 3.81-.032 4.511 2.544 4.446 5.787-.121 5.959.136 11.917-.015 17.879-.017.542-.022 1.131.05 1.632-.146-1.035 5.502-7.526 6.371-8.602 3.026-3.744 6.405-7.207 9.528-10.875.505-.595 1.096-1.118 1.643-1.678 1.404-1.438 4.854-1.322 6.375-.082 3.81 3.112-2.673 9.31-4.605 11.648-4.468 5.402-8.662 11.086-13.252 16.366.419.203.716.418 1.046.494 3.79.863 22.247 3.967 16.187 9.812-3.081 2.971-8.289.697-12.058-.082-1.19-.244-12.366-3.487-12.802-2.895z" fill="#f9c511"/><path d="m10.633 71.882c2.441-.471 6.523-2.57 8.84-.691 2.791 2.266.463 6.912-2.159 7.99-.75.311-6.769.346-6.854.984-.058.43-.154.828-.158 1.227-.015 2.115-.057 4.232.01 6.346.065 2.023.243 4.043.385 6.061.058.828.145 1.654.229 2.479.088.867.146 1.744.715 2.539 3.187.082 6.158-1.488 9.251-2.039.662-.117 1.412.266 2.121.422.777.172 1.375.525 1.481 1.41.014.127.097.277.195.359.773.627 1.003 1.445.693 2.35-1.21 3.529-5.374 4.281-8.577 4.857-3.651.654-6.534 1.348-10.228 1.428-.895.018-1.252-.492-1.343-1.258-1.081-9.118-2.034-18.255-2.658-27.415-.363-5.314-.872-10.83-1.281-16.213-.203-2.682-1.997-11.008 1.022-12.733.155-.088.334-.16.51-.186 2.705-.395 5.419-.729 8.112-1.189 1.53-.262 3.029-.717 4.538-1.104.977-.252 1.934-.592 2.922-.801 3.803-.809 4.126 2.352 2.826 5.129-1.823 3.9-6.679 4.172-10.405 4.725-1.177.172-1.299.277-1.222 1.514.056.932.837 13.848 1.035 13.809z" fill="#4bbfae"/><path d="m148.366 81.04c-2.051-.266-3.95-.512-5.982-.773-.822 3.088-1.46 14.816-5.745 15.08-1.404.084-2.568-.445-3.298-1.564-.356-.549-.414-1.445-.287-2.125.246-1.299.782-2.551 1.158-3.799 1.787-5.934 7.095-23.775 8.319-27.387 1.123-3.322 1.905-6.707 3.087-10.004.535-1.49 1.902-1.9 3.188-2.238 1.014-.264 2.016-.141 2.742.996 2.279 3.561 2.375 8.92 2.957 13.01.77 5.426 3.269 23.523 3.827 27.107.536 3.441 2.942 10.893-.764 13.436-1.286.885-3.281 1.426-4.839 1.176-2.713-.436-2.562-7.217-2.875-9.529-.584-4.329-.446-9.148-1.488-13.386zm-.443-5.637c.405-1.662-.194-9.074-.959-10.572-.993 2.787-1.931 6.654-2.915 9.422 1.357.402 2.565.76 3.874 1.15z" fill="#ed1c24"/><path d="m47.749 92.935c-1.032-4.309-3.852-8.203-6.939-11.264-1.374-1.359-13.016-6.951-9.386-9.537 2.268-1.611 9.488 4.803 9.867-.189.208-2.754-3.227-5.412-5.619-6.111-3.474-1.012-6.903-.596-9.678 1.732-3.589 3.014-4.475 7.221-2.738 11.535 1.493 3.705 5.691 5.16 8.89 7.057 1.873 1.111 3.607 2.547 5.258 3.973 1.767 1.523 4.502 6.215 2.535 8.523-2.096 2.459-6.561-2.262-7.204-4.242-.079-.242-.353-.42-.51-.646-.231-.332-.519-.652-.646-1.023-.432-1.238-1.335-2.096-2.287-2.895-1.562-1.307-3.482-1.035-4.422.703-.343.637-.458 1.512-.371 2.242.961 7.939 11.404 18.42 19.436 12.064 1.969-1.559 4.068-5.172 4.209-7.719.08-1.434-.068-2.838-.395-4.203z" fill="#4bbfae"/><path d="m59.531 76.304c.246-4.549.74-9.113 1.969-13.135.722-2.355 2.61-5.061 4.759-6.365 4.274-2.596 8.77 1.168 11.131 4.303.764 1.014 1.086 2.209 1.44 3.404.208.701.613 1.344.833 2.041 2.101 6.703 3.987 31.42-7.063 32.08-5.328.318-9.278-5.168-10.962-9.562-1.445-3.774-2.337-8.503-2.107-12.766zm6.922 1.158c.189 2.725.584 5.18.885 6.451.706 2.982 3.199 6.078 6.114 3.078 2.404-2.475 1.288-6.934.961-9.859-.273-2.438-1.386-13.971-5.412-11.662-2.581 1.476-2.884 7.162-2.548 11.992z" fill="#4bbfae"/><path d="m84.215 57.249c1.583-1.539 5.2-1.65 7.204-2.082 2.505-.539 5.481-1.746 7.605.375 1.814 1.811 1.283 4.557-1.158 5.439-1.384.5-2.706 1.174-4.1 1.633-1.034.338-2.136.49-3.218.658-.946.146-1.128.268-1.014 1.211.341 2.793.224 5.1.603 7.887.123.898.431 1.082 1.326.848 1.326-.348 2.715-.68 4.092-1.016 3.211-.783 3.292 1.453 3.579 3.25.156.973.174 1.814-.801 2.162-1.854.664-3.709 1.338-5.583 1.947-1.365.445-1.099 5.088-1.008 6.396.165 2.377.033 7.525 3.261 6.848.578-.123 2.36-.5 2.903-.744 2.137-.965 3.19 3.281 2.938 4.992-.473 3.168-5.725 3.846-8.315 4.631-3.735 1.131-6.406-.367-6.974-4.607-.889-6.637-1.582-12.99-2.061-19.67-.381-5.322-.684-11.176-.615-16.508.021-1.416.387-2.726 1.336-3.65z" fill="#ed1c24"/><path d="m104.112 84.954c1.438.34 2.658 2.844 3.1 3.893.589 1.402 1.125 2.764 2.679 3.26 1.339.43 2.785-.266 3.473-1.525 1.335-2.441-.112-5.857-1.962-7.561-1.453-1.34-3.035-2.537-4.504-3.861-1.058-.953-2.175-1.898-3.007-3.037-4.014-5.486-3.241-13.824 3.781-16.416 2.771-1.021 5.711.258 7.933 1.885 1.835 1.34 2.657 4.439 2.492 6.631-.187 2.508-3.628 2.295-5.062.875-.426-.424-.833-.867-1.272-1.273-.647-.594-.837-.586-1.527-.008-.537.451-.917.924-.988 1.719-.192 2.123.429 3.891 2.256 4.975 2.045 1.219 3.843 2.723 5.621 4.293 1.603 1.416 3.376 3.016 4.027 5.125 1.084 3.504.699 8.316-1.733 11.207-2.215 2.637-5.272 3.723-8.615 3.752-2.64.021-5.877-.59-7.299-3.086-.807-1.416-1.744-3.443-1.923-5.059-.154-1.389-.013-4.234 1.037-5.271.507-.504 1.013-.629 1.493-.518z" fill="#ed1c24"/><path d="m47.09 61.323c-1.233.324-2.299.559-3.337.889-1.483.471-1.989.314-2.737-.996-.25-.436-.541-.857-.707-1.324-.148-.42-.282-.918-.195-1.334.203-.98.507-1.945.831-2.893.593-1.729 6.634-3.184 8.326-3.43 2.418-.352 5.901-1.594 8.193-1.547 5.325.107 1.876 8.975-1.87 9.41-.44.049-.878.137-1.397.221.25 1.721.502 3.307.709 4.898 1.343 10.33 1.434 20.885 3.381 31.127.187.992-.874 2.795-1.479 3.508-.729.861-1.801 1.574-2.932 1.758-2.037.328-2.402-1.656-2.666-3.225-.153-.906-.22-1.826-.37-2.732-.758-4.574-1.094-9.1-1.611-13.699-.189-1.658-2.506-20.535-2.139-20.631z" fill="#4bbfae"/><path d="m127.795 54.669c-2.099 1.609-6.373.824-7.007-1.998-.446-1.988 1.264-4.912 3.18-5.473 3.932-1.148 7.649-2.068 11.724-2.49.626-.066 1.269-.092 1.871-.26 3.712-1.037 6.17 7.832 1.3 8.039-.912.039-1.83.195-2.722.41-.909.221-1.309.859-1.298 1.84.099 8.574-1.543 17.203-2.345 25.73-.278 2.977-.573 5.953-.918 8.922-.153 1.322-.42 2.631-.669 3.941-.128.666-.301 1.326-.513 1.969-.333.998-1.326 1.346-2.094 1.225-.895-.139-1.934-.121-2.698-.879-1.961-1.941-.719-6.018-.504-8.426.345-3.805.689-7.609 1.123-11.404.75-6.568 1.37-13.104 1.569-19.713.013-.353.001-.71.001-1.433z" fill="#ed1c24"/><path d="m69.886 36.392c-.057-5.269-.162-10.537-.04-15.804.079-3.396-.444-12.561 5.132-11.85 5.828.741 4.908 7.352 4.775 11.588-.17 5.4-.058 10.808-.261 16.207-.144 3.807.456 9.949-3.16 12.424-3.147 2.154-6.438-3.318-6.423-5.949.016-2.204 0-4.409-.023-6.616z" fill="#f9c511"/></g><g fill="#143e4e"><path d="m13.879 125.136v-7.115h1.39v7.115z"/><path d="m17.829 125.136v-7.115h1.39v5.879h3.227v1.236z"/><path d="m24.555 125.136v-7.115h1.39v5.879h3.227v1.236z"/><path d="m33.736 125.196c-1.46 0-2.618-.99-2.618-2.498v-4.678h1.388v4.629c0 .818.48 1.309 1.23 1.309s1.238-.49 1.238-1.309v-4.629h1.381v4.678c0 1.508-1.16 2.498-2.619 2.498z"/><path d="m40.816 125.196c-1.078 0-1.897-.229-2.598-.941l.9-.896c.448.449 1.059.6 1.719.6.818 0 1.259-.311 1.259-.877 0-.252-.071-.461-.22-.604-.141-.127-.3-.199-.63-.248l-.86-.123c-.609-.09-1.059-.277-1.378-.588-.341-.338-.51-.799-.51-1.398 0-1.271.939-2.16 2.478-2.16.98 0 1.689.24 2.299.832l-.879.869c-.45-.432-.99-.49-1.459-.49-.74 0-1.1.408-1.1.9 0 .18.06.367.209.51.141.131.371.238.66.277l.84.123c.648.09 1.059.27 1.357.549.381.359.551.879.551 1.51.001 1.376-1.149 2.155-2.638 2.155z"/><path d="m48.548 119.261v5.875h-1.388v-5.875h-1.859v-1.24h5.107v1.24z"/><path d="m56.296 125.136-1.391-2.838h-.999v2.838h-1.39v-7.115h2.788c1.45 0 2.309.992 2.309 2.182 0 .996-.608 1.615-1.299 1.867l1.59 3.066zm-1.08-5.875h-1.31v1.879h1.31c.609 0 1.009-.391 1.009-.938 0-.551-.4-.941-1.009-.941z"/><path d="m64.47 125.136-.42-1.26h-2.529l-.429 1.26h-1.449l2.588-7.115h1.09l2.599 7.115zm-1.659-5.016-.9 2.586h1.77z"/><path d="m69.951 119.261v5.875h-1.389v-5.875h-1.858v-1.24h5.106v1.24z"/><path d="m73.92 125.136v-7.115h1.39v7.115z"/><path d="m82.208 124.417c-.499.498-1.108.779-1.918.779-.811 0-1.431-.281-1.93-.779-.719-.721-.699-1.609-.699-2.836 0-1.232-.02-2.121.699-2.838.499-.502 1.119-.783 1.93-.783.81 0 1.419.281 1.918.783.72.717.71 1.605.71 2.838 0 1.227.01 2.115-.71 2.836zm-1.029-4.838c-.199-.229-.51-.379-.889-.379-.381 0-.701.15-.9.379-.27.301-.339.631-.339 2.002 0 1.369.069 1.695.339 1.998.199.229.52.379.9.379.379 0 .689-.15.889-.379.27-.303.351-.629.351-1.998-.001-1.371-.082-1.701-.351-2.002z"/><path d="m89.491 125.136-2.818-4.367v4.367h-1.39v-7.115h1.239l2.819 4.359v-4.359h1.389v7.115z"/><path d="m101.181 125.136-.521-.619c-.33.26-.819.68-1.838.68-1.57 0-2.349-.818-2.349-2.156 0-.91.658-1.5 1.278-1.912-.29-.326-.709-.828-.709-1.508 0-.967.709-1.66 1.899-1.66 1.119 0 1.818.711 1.818 1.68 0 .551-.29.918-.73 1.24 0 0-.33.248-.509.371l1.198 1.418c.23-.311.341-.742.36-1.25h1.229c-.049.92-.261 1.65-.76 2.209l1.279 1.508h-1.645zm-2.728-3.209c-.431.303-.722.582-.722 1.092 0 .588.48 1 1.08 1 .42 0 .729-.131 1.06-.42zm.489-2.858c-.392 0-.591.252-.591.582 0 .258.22.51.471.799.1-.061.299-.199.299-.199.23-.162.41-.35.41-.6 0-.33-.219-.582-.589-.582z"/><path d="m112.669 124.458c-.471.469-1.14.678-1.88.678h-2.568v-7.115h2.568c.74 0 1.409.209 1.88.682.799.799.72 1.777.72 2.846 0 1.071.079 2.108-.72 2.909zm-.969-4.758c-.24-.289-.561-.439-1.04-.439h-1.049v4.639h1.049c.479 0 .8-.154 1.04-.439.259-.322.3-.832.3-1.912s-.041-1.53-.3-1.849z"/><path d="m115.742 125.136v-7.115h4.687v1.24h-3.297v1.67h2.808v1.238h-2.808v1.73h3.297v1.236h-4.687z"/><path d="m124.935 125.196c-1.079 0-1.898-.229-2.599-.941l.9-.896c.448.449 1.059.6 1.719.6.819 0 1.259-.311 1.259-.877 0-.252-.069-.461-.22-.604-.142-.127-.301-.199-.631-.248l-.857-.123c-.611-.09-1.06-.277-1.38-.588-.34-.338-.51-.799-.51-1.398 0-1.271.939-2.16 2.478-2.16.979 0 1.688.24 2.299.832l-.88.869c-.449-.432-.987-.49-1.46-.49-.738 0-1.097.408-1.097.9 0 .18.059.367.208.51.141.131.371.238.66.277l.84.123c.648.09 1.06.27 1.358.549.379.359.55.879.55 1.51 0 1.376-1.149 2.155-2.637 2.155z"/><path d="m129.771 125.136v-7.115h1.39v7.115z"/><path d="m138.139 124.386c-.567.592-1.248.811-2.007.811-.782 0-1.422-.281-1.92-.779-.721-.721-.7-1.609-.7-2.836 0-1.232-.021-2.121.7-2.838.498-.502 1.118-.783 1.92-.783 1.647 0 2.487 1.08 2.679 2.279h-1.401c-.16-.668-.568-1.039-1.277-1.039-.382 0-.692.15-.889.379-.272.301-.342.631-.342 2.002 0 1.369.069 1.707.342 2.006.196.232.507.371.889.371.42 0 .759-.15.987-.4.231-.26.321-.578.321-.949v-.27h-1.309v-1.158h2.688v1.039c-.001 1.026-.18 1.647-.681 2.165z"/><path d="m145.383 125.136-2.82-4.367v4.367h-1.387v-7.115h1.239l2.817 4.359v-4.359h1.391v7.115z"/></g></svg>