<?xml version="1.0" encoding="utf-8"?>
<!-- Generator: Adobe Illustrator 16.0.0, SVG Export Plug-In . SVG Version: 6.00 Build 0)  -->
<!DOCTYPE svg PUBLIC "-//W3C//DTD SVG 1.1//EN" "http://www.w3.org/Graphics/SVG/1.1/DTD/svg11.dtd">
<svg version="1.1" id="Layer_1" xmlns="http://www.w3.org/2000/svg" xmlns:xlink="http://www.w3.org/1999/xlink" x="0px" y="0px"
	 width="1024px" height="644.205px" viewBox="0 0 1024 644.205" enable-background="new 0 0 1024 644.205" xml:space="preserve">
<g opacity="0.4">
	<path fill="#F8C411" d="M816,193h-3.918H755v58.112V256h61V193z M761,199h45.814L761,245.782V199z M810,250h-45.778L810,202.699
		V250z"/>
	<path fill="#F8C411" d="M571,459v58.396V522h61v-63h-4.284H571z M576,465h46.473L576,512.043V465z M627,516h-47.159L627,468.748
		V516z"/>
	<path fill="#F8C411" d="M304,226h-3.016H233v68.002V298h71V226z M239,231h56.718L239,288.673V231z M300,293h-57.937L300,234.401
		V293z"/>
	<path fill="#F8C411" d="M1000,506.726v-46.709V249.549V25H27v589h973V506.726z M993.786,31c-1.365,7-8.534,13.483-16.957,13.483
		c-8.422,0-15.592-6.483-16.958-13.483H993.786z M947.46,205.872L908,245.782v-80.323L947.46,205.872z M911.655,162h78.437
		l-38.945,39.708l-0.271,0.369L911.655,162z M951.425,209.834L990.223,250h-78.512L951.425,209.834z M955.225,205.615l-0.016-0.021
		l0.035-0.021L994,165.508v80.168L955.225,205.615z M908,156V69h86v87H908z M937.002,49.905c6.893,0,12.998-2.989,16.998-7.678V64
		h-34V42.228C925,46.916,930.107,49.905,937.002,49.905z M920.601,38.708c2.042,2.942,4.925,5.312,8.306,6.799
		C925.512,44.019,922.636,41.65,920.601,38.708z M928.991,45.542c1.684,0.731,3.488,1.247,5.373,1.505
		c-0.027-0.002-0.053-0.005-0.08-0.007c-0.183-0.025-0.363-0.057-0.545-0.087c-0.126-0.021-0.25-0.041-0.375-0.064
		c-0.2-0.037-0.397-0.079-0.597-0.122c-0.102-0.021-0.201-0.042-0.302-0.065c-0.217-0.051-0.43-0.104-0.643-0.162
		c-0.076-0.021-0.152-0.039-0.229-0.061c-0.231-0.064-0.463-0.133-0.692-0.206c-0.048-0.015-0.099-0.032-0.149-0.049
		c-0.251-0.081-0.499-0.167-0.745-0.257c-0.021-0.007-0.038-0.013-0.059-0.021C929.623,45.824,929.309,45.68,928.991,45.542z
		 M939.989,47.047c1.889-0.259,3.697-0.775,5.384-1.509c-0.324,0.141-0.644,0.286-0.976,0.41c-0.016,0.006-0.031,0.011-0.046,0.017
		c-0.249,0.092-0.502,0.18-0.756,0.262c-0.048,0.017-0.093,0.031-0.14,0.044c-0.232,0.074-0.465,0.144-0.701,0.208
		c-0.073,0.022-0.146,0.041-0.219,0.061c-0.215,0.057-0.433,0.111-0.651,0.162c-0.098,0.022-0.196,0.044-0.293,0.065
		c-0.201,0.042-0.402,0.085-0.603,0.122c-0.124,0.024-0.248,0.043-0.37,0.063c-0.184,0.032-0.366,0.063-0.552,0.088
		C940.043,47.042,940.017,47.045,939.989,47.047z M945.443,45.509c3.383-1.488,6.268-3.858,8.31-6.802
		C951.718,41.651,948.842,44.021,945.443,45.509z M959,64V42.228c5,4.688,10.605,7.678,17.5,7.678s13.5-2.989,17.5-7.678V64H959z
		 M960.25,38.705c2.043,2.943,4.927,5.313,8.308,6.801C965.161,44.018,962.285,41.648,960.25,38.705z M968.65,45.545
		c1.682,0.73,3.484,1.244,5.366,1.502c-0.027-0.002-0.053-0.005-0.08-0.007c-0.183-0.025-0.363-0.057-0.545-0.087
		c-0.124-0.021-0.25-0.041-0.375-0.064c-0.2-0.037-0.398-0.079-0.597-0.122c-0.101-0.021-0.201-0.042-0.301-0.065
		c-0.217-0.051-0.432-0.104-0.645-0.162c-0.076-0.021-0.151-0.039-0.228-0.061c-0.232-0.064-0.463-0.133-0.691-0.206
		c-0.05-0.015-0.1-0.032-0.15-0.049c-0.251-0.081-0.5-0.167-0.746-0.257c-0.02-0.007-0.038-0.013-0.058-0.021
		C969.277,45.824,968.966,45.682,968.65,45.545z M979.644,47.047c1.864-0.255,3.651-0.764,5.32-1.484
		c-0.305,0.13-0.604,0.269-0.916,0.385c-0.015,0.006-0.028,0.011-0.043,0.017c-0.25,0.092-0.504,0.18-0.757,0.262
		c-0.047,0.017-0.094,0.031-0.141,0.044c-0.23,0.074-0.465,0.144-0.7,0.208c-0.073,0.022-0.146,0.041-0.219,0.061
		c-0.216,0.057-0.433,0.111-0.651,0.162c-0.098,0.022-0.195,0.044-0.294,0.065c-0.2,0.042-0.4,0.085-0.602,0.122
		c-0.124,0.024-0.248,0.043-0.372,0.063c-0.183,0.032-0.364,0.063-0.55,0.088C979.694,47.042,979.668,47.045,979.644,47.047z
		 M985.112,45.5c3.375-1.487,6.252-3.853,8.291-6.791C991.371,41.648,988.504,44.014,985.112,45.5z M958.42,35.385
		c0.348,0.823,0.754,1.616,1.217,2.376c0.162,0.267,0.334,0.527,0.509,0.786c-0.172-0.254-0.351-0.502-0.509-0.764
		c-0.464-0.765-0.871-1.564-1.219-2.39C958.419,35.391,958.419,35.388,958.42,35.385z M955.587,35.385
		c0.033-0.078,0.065-0.159,0.099-0.24c0.243-0.595,0.456-1.205,0.634-1.827c0.081-0.28,0.153-0.563,0.219-0.847
		c0.009-0.03,0.017-0.061,0.022-0.092c0.047-0.203,0.086-0.41,0.124-0.614c0.021-0.103,0.043-0.206,0.06-0.31
		c0.021-0.119,0.037-0.243,0.057-0.362c0.005-0.047,0.012-0.091,0.02-0.138c0.012-0.094,0.03-0.187,0.042-0.281
		c-0.013,0.097-0.03,0.194-0.043,0.291c-0.007,0.043-0.014,0.085-0.019,0.128c-0.019,0.116-0.034,0.233-0.054,0.35
		c-0.022,0.124-0.046,0.244-0.069,0.365c-0.034,0.181-0.069,0.364-0.109,0.544c-0.018,0.077-0.037,0.152-0.056,0.228
		c-0.059,0.249-0.123,0.497-0.192,0.743c-0.178,0.625-0.391,1.239-0.635,1.837c-0.031,0.079-0.063,0.156-0.097,0.234
		c-0.348,0.826-0.756,1.625-1.22,2.39c-0.157,0.259-0.335,0.504-0.505,0.756c0.174-0.256,0.344-0.514,0.505-0.778
		C954.831,37.001,955.237,36.208,955.587,35.385z M954.136,31c-1.365,7-8.536,13.483-16.958,13.483
		c-8.423,0-15.594-6.483-16.96-13.483H954.136z M918.768,35.385c0.349,0.823,0.754,1.616,1.216,2.376
		c0.16,0.264,0.331,0.521,0.503,0.775c-0.168-0.25-0.346-0.495-0.503-0.753c-0.463-0.765-0.87-1.564-1.219-2.39
		C918.765,35.394,918.767,35.388,918.768,35.385z M915.936,35.385c0.032-0.078,0.064-0.159,0.099-0.24
		c0.241-0.595,0.456-1.205,0.634-1.827c0.078-0.279,0.151-0.559,0.217-0.841c-0.009,0.036-0.017,0.071-0.025,0.108
		c-0.06,0.247-0.122,0.493-0.191,0.736c-0.178,0.625-0.392,1.239-0.634,1.837c-0.032,0.079-0.065,0.156-0.097,0.234
		c-0.35,0.826-0.756,1.625-1.222,2.39c-0.157,0.26-0.335,0.507-0.505,0.758c0.174-0.257,0.345-0.516,0.505-0.78
		C915.179,37.001,915.585,36.208,915.936,35.385z M914.483,31c-1.366,7-8.536,13.483-16.959,13.483
		c-8.422,0-15.593-6.483-16.958-13.483H914.483z M914.102,38.706c-2.035,2.945-4.913,5.314-8.312,6.803
		C909.173,44.021,912.059,41.65,914.102,38.706z M905.723,45.537c-0.321,0.139-0.64,0.286-0.971,0.409
		c-0.02,0.008-0.038,0.014-0.058,0.021c-0.247,0.09-0.495,0.176-0.746,0.257c-0.049,0.017-0.101,0.034-0.149,0.049
		c-0.229,0.073-0.46,0.142-0.693,0.206c-0.075,0.022-0.151,0.041-0.228,0.061c-0.213,0.057-0.427,0.111-0.644,0.162
		c-0.099,0.022-0.2,0.044-0.301,0.065c-0.198,0.042-0.396,0.085-0.597,0.122c-0.124,0.024-0.249,0.043-0.376,0.064
		c-0.181,0.03-0.361,0.062-0.546,0.087c-0.024,0.002-0.05,0.005-0.078,0.007C902.227,46.788,904.036,46.271,905.723,45.537z
		 M894.711,47.047c-0.025-0.002-0.053-0.005-0.078-0.007c-0.183-0.025-0.364-0.057-0.546-0.087
		c-0.125-0.021-0.251-0.041-0.375-0.064c-0.2-0.037-0.399-0.079-0.596-0.122c-0.102-0.021-0.203-0.042-0.302-0.065
		c-0.217-0.051-0.431-0.104-0.644-0.162c-0.076-0.021-0.153-0.039-0.229-0.061c-0.232-0.064-0.462-0.133-0.691-0.206
		c-0.05-0.015-0.099-0.032-0.148-0.049c-0.253-0.081-0.502-0.167-0.747-0.257c-0.021-0.007-0.038-0.013-0.059-0.021
		c-0.324-0.122-0.637-0.265-0.952-0.402C891.026,46.274,892.829,46.789,894.711,47.047z M889.253,45.506
		c-3.396-1.488-6.272-3.857-8.307-6.802C882.988,41.647,885.872,44.018,889.253,45.506z M880.332,37.762
		c0.162,0.267,0.334,0.527,0.51,0.786c-0.171-0.254-0.351-0.502-0.51-0.764V37.762z M880,42.228c4,4.688,10.607,7.678,17.5,7.678
		c6.895,0,13.5-2.989,17.5-7.678V64h-35V42.228z M857,31h18v32h-18V31z M857,69h17.862l0,0H902v22h-45V69z M857,96h45v23h-45V96z
		 M857,125h45v23h-45V125z M857,153h45v22h-45V153z M868.481,249.549c-18.88,0-34.241-15.535-34.241-34.633
		s15.361-34.634,34.241-34.634c18.879,0,34.237,15.536,34.237,34.634S887.36,249.549,868.481,249.549z M902,234.813V250h-13.85
		C894.195,246,899,240.927,902,234.813z M848.81,250H835v-15.187C838,240.927,842.764,246,848.81,250z M835,195.019V181h13.81
		C842.764,184,838,188.903,835,195.019z M888.15,181H902v14.019C899,188.903,894.195,184,888.15,181z M784,31h68v69h-17.822
		C832.841,73,810,50.491,784,49.141V31z M784,54.475C808,55.811,827.581,76,828.902,100H784V54.475z M784,105.759
		C808,107.096,827.581,127,828.902,152H784V105.759z M784,157h51v-2.691C835,132.927,821.882,114,804.012,106H852v69h-68V157z
		 M939.921,465.35c9.019,0,16.631,5.65,17.916,15.65h-35.832C923.289,471,930.901,465.35,939.921,465.35z M945.415,460H963v17.437
		C960,468.855,953.897,461,945.415,460z M939.921,502.652c-9.02,0-16.632-7.652-17.916-15.652h35.832
		C956.552,495,948.939,502.652,939.921,502.652z M954.258,498.123c-0.079,0.076-0.151,0.159-0.231,0.235
		c-0.01,0.01-0.019,0.02-0.026,0.025c-0.229,0.216-0.466,0.422-0.705,0.627c-0.048,0.041-0.094,0.084-0.142,0.124
		c-0.22,0.185-0.444,0.364-0.671,0.54c-0.073,0.055-0.146,0.112-0.222,0.167c-0.211,0.159-0.427,0.315-0.647,0.467
		c-0.095,0.066-0.192,0.131-0.29,0.197c-0.204,0.138-0.414,0.273-0.623,0.404c-0.121,0.073-0.245,0.144-0.367,0.215
		c-0.194,0.115-0.39,0.23-0.589,0.34c-0.158,0.087-0.32,0.167-0.482,0.251c-0.171,0.086-0.34,0.177-0.511,0.261
		c-0.141,0.064-0.286,0.125-0.429,0.189C950.527,501.171,952.533,499.795,954.258,498.123z M948.297,502.178
		c-0.193,0.085-0.381,0.176-0.576,0.256l-0.023,0.01c-0.287,0.117-0.578,0.23-0.875,0.335c-0.026,0.011-0.055,0.018-0.08,0.027
		c-0.276,0.099-0.557,0.191-0.84,0.278c-0.048,0.016-0.098,0.027-0.146,0.041c-0.264,0.08-0.529,0.154-0.798,0.222
		c-0.072,0.019-0.146,0.033-0.22,0.051c-0.103,0.026-0.208,0.047-0.312,0.07C945.768,503.166,947.064,502.73,948.297,502.178z
		 M935.414,503.468c-0.104-0.023-0.208-0.044-0.312-0.07c-0.074-0.018-0.147-0.032-0.221-0.051
		c-0.271-0.067-0.534-0.142-0.798-0.222c-0.048-0.014-0.098-0.025-0.146-0.041c-0.282-0.087-0.563-0.18-0.84-0.278
		c-0.025-0.01-0.053-0.017-0.08-0.027c-0.296-0.104-0.587-0.218-0.874-0.335l-0.024-0.01c-0.192-0.08-0.382-0.171-0.574-0.256
		C932.777,502.73,934.073,503.166,935.414,503.468z M931.519,502.166c-0.142-0.064-0.288-0.125-0.427-0.189
		c-0.174-0.084-0.342-0.175-0.511-0.261c-0.163-0.084-0.325-0.164-0.484-0.251c-0.198-0.109-0.394-0.225-0.588-0.34
		c-0.123-0.071-0.247-0.142-0.368-0.215c-0.211-0.131-0.417-0.267-0.623-0.404c-0.097-0.066-0.195-0.131-0.29-0.197
		c-0.219-0.151-0.436-0.308-0.647-0.467c-0.074-0.055-0.147-0.112-0.222-0.167c-0.226-0.176-0.45-0.355-0.67-0.54
		c-0.047-0.04-0.095-0.083-0.142-0.124c-0.24-0.205-0.477-0.411-0.705-0.627c-0.009-0.006-0.018-0.016-0.027-0.025
		c-0.079-0.076-0.152-0.159-0.23-0.235C927.309,499.795,929.313,501.171,931.519,502.166z M954.258,467.864
		c-1.725-1.672-3.73-3.047-5.936-4.043c0.143,0.064,0.288,0.123,0.429,0.19c0.171,0.083,0.34,0.173,0.511,0.259
		c0.162,0.084,0.324,0.164,0.482,0.252c0.199,0.108,0.395,0.223,0.589,0.339c0.122,0.072,0.246,0.143,0.367,0.218
		c0.209,0.131,0.417,0.267,0.622,0.401c0.099,0.067,0.196,0.132,0.292,0.199c0.22,0.149,0.436,0.306,0.646,0.465
		c0.075,0.058,0.148,0.112,0.222,0.168c0.227,0.176,0.451,0.356,0.671,0.539c0.048,0.041,0.094,0.083,0.142,0.124
		c0.239,0.205,0.476,0.412,0.705,0.627c0.008,0.008,0.017,0.016,0.026,0.024C954.106,467.704,954.179,467.788,954.258,467.864z
		 M945.757,462.862c0.048,0.014,0.098,0.026,0.146,0.04c0.283,0.087,0.563,0.181,0.84,0.278c0.025,0.01,0.054,0.019,0.08,0.029
		c0.297,0.104,0.588,0.216,0.875,0.335l0.023,0.009c0.195,0.08,0.383,0.171,0.576,0.257c-1.232-0.555-2.529-0.989-3.869-1.291
		c0.104,0.023,0.209,0.045,0.312,0.07c0.074,0.018,0.147,0.033,0.22,0.051C945.228,462.709,945.493,462.783,945.757,462.862z
		 M922.353,471.863c0.479-0.772,1.011-1.511,1.584-2.211C923.363,470.352,922.833,471.091,922.353,471.863z M925.584,467.864
		c0.078-0.076,0.151-0.16,0.23-0.237c0.01-0.009,0.019-0.017,0.027-0.024c0.229-0.215,0.465-0.422,0.705-0.627
		c0.047-0.041,0.095-0.083,0.142-0.124c0.22-0.183,0.444-0.363,0.67-0.539c0.074-0.056,0.147-0.11,0.222-0.168
		c0.212-0.159,0.429-0.315,0.647-0.465c0.095-0.067,0.193-0.132,0.291-0.199c0.206-0.135,0.413-0.271,0.622-0.401
		c0.121-0.075,0.245-0.146,0.368-0.218c0.194-0.116,0.39-0.23,0.588-0.339c0.159-0.088,0.321-0.168,0.484-0.252
		c0.169-0.086,0.337-0.176,0.511-0.259c0.139-0.067,0.285-0.126,0.427-0.19C929.313,464.817,927.309,466.192,925.584,467.864z
		 M931.546,463.811c0.192-0.086,0.382-0.177,0.574-0.257l0.024-0.009c0.287-0.119,0.578-0.231,0.874-0.335
		c0.027-0.011,0.055-0.02,0.08-0.029c0.276-0.098,0.558-0.191,0.84-0.278c0.048-0.014,0.098-0.026,0.146-0.04
		c0.264-0.079,0.527-0.153,0.798-0.222c0.073-0.018,0.146-0.033,0.221-0.051c0.104-0.025,0.207-0.047,0.312-0.07
		C934.073,462.821,932.777,463.256,931.546,463.811z M916.699,481H916v6h0.699c1.312,11,11.404,20.309,23.402,20.309
		c10.994,0,19.898-8.394,22.898-18.758V507h-47v-47h18.426C925.011,463,917.804,470,916.699,481z M903.18,558l21.781-22.422
		l19.013-19.431l2.63-2.756l0.138-0.186l0.136,0.116l2.632,2.649L967.2,534.25L990.301,558H903.18z M919.355,562L895,586.233V562
		H919.355z M940.386,512l-1.229,1.27l-2.632,2.679l-17.921,18.147l-21.779,22.051l-21.781-22.072L853.264,512H940.386z M557.822,540
		L557.822,540H644v18H437v-18H557.822z M437,534v-18h116v18H437z M447,96v23h-46V96H447z M401,91V69h46v22H401z M447,125v23h-46v-23
		H447z M447,153v22h-46v-22H447z M474,181v18.782c-14,0.655-27.235,6.449-37.262,16.592C426.712,226.516,420.918,241,420.271,254
		H401v-73H474z M553,181v73h-19.848c0,0,0,0.084-0.002,0.074c-0.015-0.345-0.036-0.637-0.059-0.98
		c-0.008-0.118-0.015-0.212-0.022-0.332c-0.022-0.317-0.049-0.622-0.076-0.939c-0.012-0.143-0.025-0.282-0.038-0.428
		c-0.028-0.299-0.06-0.592-0.092-0.886c-0.018-0.168-0.037-0.331-0.056-0.497c-0.034-0.278-0.069-0.554-0.106-0.831
		c-0.024-0.189-0.05-0.373-0.077-0.559c-0.036-0.256-0.075-0.514-0.115-0.77c-0.033-0.212-0.067-0.419-0.103-0.63
		c-0.039-0.231-0.078-0.463-0.121-0.693c-0.045-0.246-0.093-0.493-0.139-0.739c-0.038-0.191-0.074-0.383-0.113-0.573
		c-0.064-0.311-0.133-0.621-0.202-0.931c-0.027-0.125-0.055-0.25-0.083-0.377c-1.957-8.521-5.835-16.477-11.398-23.302
		c-0.021-0.027-0.041-0.053-0.062-0.078c-0.218-0.268-0.439-0.529-0.662-0.791c-0.079-0.093-0.153-0.187-0.234-0.278
		c-0.141-0.166-0.286-0.327-0.43-0.491c-0.161-0.183-0.32-0.368-0.484-0.548c-0.003-0.004-0.006-0.007-0.009-0.011
		c-1.185-1.314-2.43-2.573-3.729-3.771c-0.002-0.003-0.006-0.006-0.009-0.01c-0.181-0.167-0.362-0.326-0.542-0.489
		c-0.162-0.145-0.324-0.292-0.486-0.435c-0.092-0.08-0.184-0.157-0.275-0.236c-0.259-0.225-0.518-0.451-0.782-0.67
		c-0.026-0.022-0.052-0.042-0.079-0.065c-6.746-5.625-14.611-9.549-23.038-11.528c-0.123-0.03-0.247-0.056-0.369-0.085
		c-0.305-0.068-0.612-0.138-0.92-0.202c-0.19-0.041-0.38-0.078-0.568-0.116c-0.243-0.048-0.486-0.096-0.731-0.142
		c-0.227-0.042-0.456-0.081-0.684-0.121c-0.208-0.035-0.415-0.071-0.624-0.104c-0.252-0.042-0.506-0.079-0.761-0.118
		c-0.182-0.028-0.368-0.052-0.55-0.078c-0.275-0.037-0.55-0.072-0.825-0.105c-0.163-0.021-0.327-0.039-0.49-0.059
		c-0.294-0.033-0.588-0.063-0.882-0.092c-0.143-0.014-0.286-0.027-0.43-0.039c-0.313-0.027-0.626-0.056-0.94-0.079
		c-0.117-0.007-0.236-0.015-0.353-0.022c-0.34-0.021-0.352-0.042-0.694-0.058c-0.011,0,0.295-0.002,0.295-0.002V181H553z M505.6,175
		c6.046-3,11.4-8.667,14.4-14.782V175H505.6z M517.632,55L485.93,98.792l-16.398-22.657L454.228,55H517.632z M460.908,40.949
		c0-1.91,1.538-3.462,3.424-3.462c1.888,0,3.424,1.553,3.424,3.462c0,1.91-1.537,3.462-3.424,3.462
		C462.446,44.412,460.908,42.859,460.908,40.949z M486.852,40.949c0-1.91,1.536-3.462,3.423-3.462c1.889,0,3.424,1.553,3.424,3.462
		c0,1.91-1.536,3.462-3.424,3.462C488.387,44.412,486.852,42.859,486.852,40.949z M511.61,40.949c0-1.91,1.536-3.462,3.423-3.462
		s3.422,1.553,3.422,3.462c0,1.91-1.534,3.462-3.422,3.462S511.61,42.859,511.61,40.949z M522.803,55.91L554.501,100h-63.4
		L522.803,55.91z M591.375,55l-31.7,44.091L527.975,55H591.375z M537.551,40.949c0-1.91,1.536-3.462,3.424-3.462
		c1.887,0,3.422,1.553,3.422,3.462c0,1.91-1.535,3.462-3.422,3.462C539.087,44.412,537.551,42.859,537.551,40.949z M562.31,40.949
		c0-1.91,1.534-3.462,3.422-3.462s3.425,1.553,3.425,3.462c0,1.91-1.537,3.462-3.425,3.462S562.31,42.859,562.31,40.949z M665.12,55
		l-31.7,44.091L601.719,55H665.12z M613.007,40.949c0-1.91,1.537-3.462,3.425-3.462c1.887,0,3.424,1.553,3.424,3.462
		c0,1.91-1.537,3.462-3.424,3.462C614.544,44.412,613.007,42.859,613.007,40.949z M637.766,40.949c0-1.91,1.535-3.462,3.423-3.462
		s3.425,1.553,3.425,3.462c0,1.91-1.537,3.462-3.425,3.462S637.766,42.859,637.766,40.949z M806,348v-70.919L879.455,348H806z
		 M838,378.285c0,0.003,0.113,0.01,0.18,0.012c0.641,0.037,1.273,0.086,1.909,0.145c0.162,0.015,0.321,0.028,0.483,0.043
		c0.604,0.063,1.201,0.141,1.8,0.224c0.248,0.033,0.494,0.066,0.741,0.105c0.515,0.079,1.025,0.17,1.535,0.266
		c0.558,0.102,1.108,0.218,1.659,0.339c0.198,0.043,0.401,0.085,0.601,0.131c19.035,4.43,33.97,19.539,38.349,38.792
		c0.046,0.201,0.087,0.404,0.131,0.607c0.12,0.557,0.235,1.116,0.337,1.68c0.093,0.516,0.183,1.031,0.261,1.553
		c0.037,0.249,0.069,0.498,0.104,0.748c0.081,0.605,0.159,1.213,0.22,1.824c0.016,0.164,0.026,0.328,0.043,0.491
		c0.059,0.644,0.107,1.598,0.142,2.248c0.004,0.064,0.012,0.506,0.015,0.506H838V378.285z M795.382,470.596
		c0.965,0.98,1.968,1.855,2.979,2.736c1.021,0.898,2.215,1.731,3.293,2.546c0.773,0.586,1.346,1.07,2.346,1.555v0.003l-0.123,0.003
		c0.012,0.009-0.036,0.017-0.023,0.025c0.305,0.208,0.591,0.419,0.928,0.641c0.124,0.081,0.24,0.164,0.371,0.247
		c0.266,0.172,0.534,0.347,0.833,0.532c0.019,0.012,0.034,0.023,0.052,0.033c0.006,0.004,0.01,0.008,0.013,0.011l1.112,0.684
		l0.008-0.014c0.777,0.453,1.584,0.901,2.445,1.349l0.041,0.021l-0.006,0.011l1.187,0.582c0.446,0.218,0.878,0.422,1.301,0.614
		l-0.007,0.012l1.21,0.519c0.014,0.007,0.025,0.013,0.038,0.018l1.184,0.502l0.006-0.012c0.388,0.154,0.776,0.303,1.164,0.446
		c0.06,0.023,0.122,0.048,0.184,0.071c0.079,0.03,0.154,0.056,0.233,0.086l1.008,0.368l0.004-0.009
		c0.365,0.126,0.715,0.241,1.054,0.351c0.856,0.272,1.621,0.501,2.325,0.69c1.146,0.314,2.352,0.604,3.571,0.854
		c0.456,0.094,0.911,0.179,1.378,0.265c0.481,0.086,0.969,0.165,1.459,0.238l-0.003,0.014l1.306,0.166
		c0.713,0.092,1.433,0.164,2.155,0.229c0.062,0.005,0.125,0.009,0.188,0.014c0.662,0.057,1.476,0.101,2.142,0.132
		c0.039,0.002,0.264,0.006,0.264,0.008V507h-73v-74h18.896C779.54,447,785.366,460.471,795.382,470.596z M833,378.286V428h-48.815
		C785.618,401,806,379.627,833,378.286z M833,433v48.592c-27-1.342-47.252-22.195-48.67-48.656
		c-0.004-0.062-0.151,0.064-0.154,0.064H833z M833,354v18.95c-14,0.657-27.422,6.973-37.449,17.112
		C785.578,400.152,779.605,414,778.91,428h-0.217l0,0H760v-74H833z M801,348h-77v-75h77V348z M713,440v-86h41v86H713z M754,446v27
		h-32v-27H754z M668,440v-86h40v86H668z M678,446v27h-28v-27H678z M718,277.034V348h-74.215L718,277.034z M640,344.615V273h74.356
		L640,344.615z M684,478h32v29h-32V478z M684,473v-27h32v27H684z M736,250h-33.456L736,186.33V250z M696.536,250h-22.605l37.528-69
		h22.604L696.536,250z M736,256v12H558v-12H736z M558,417.751V415h58v25h-58V417.751L558,417.751z M597.399,181h22.605l-37.525,69
		h-22.606L597.399,181z M558,242.475V181h33.395L558,242.475z M626.012,181h22.41l-37.526,69h-22.412L626.012,181z M645.346,175
		h-22.723l-38.042-69h22.721L645.346,175z M613.328,106h22.528l38.045,69h-22.529L613.328,106z M616.599,175H594.07l-38.044-69
		h22.528L616.599,175z M588.044,175h-22.723l-38.043-69h22.723L588.044,175z M559.296,175H525v-61.694L559.296,175z M558,410
		v-29.083l0.891-2.666L558,375.586V354h58v56H558z M558,348v-75h77v75H558z M616.902,250l37.527-69h22.604l-37.526,69H616.902z
		 M641.882,106h22.725l38.042,69h-22.722L641.882,106z M670.632,106H705v61.407L670.632,106z M638.591,100l31.701-43.912
		l16.396,22.716L701.993,100H638.591z M667.131,44.412c-1.889,0-3.424-1.552-3.424-3.462c0-1.91,1.535-3.462,3.424-3.462
		c1.888,0,3.423,1.553,3.423,3.462C670.554,42.859,669.019,44.412,667.131,44.412z M628.248,100h-63.403l31.702-44.09L628.248,100z
		 M587.065,40.949c0-1.91,1.535-3.462,3.423-3.462c1.89,0,3.425,1.553,3.425,3.462c0,1.91-1.535,3.462-3.425,3.462
		C588.601,44.412,587.065,42.859,587.065,40.949z M520,106v14.422c-3-6.113-8.354-11.422-14.4-14.422H520z M479.869,205.13
		c0.633,0.035,1.098,0.084,1.727,0.142c0.155,0.015,0.23,0.026,0.386,0.043c0.619,0.063,1.196,0.141,1.811,0.227
		c0.21,0.029,0.403,0.059,0.614,0.09c0.564,0.085,1.118,0.185,1.678,0.289c0.265,0.049,0.522,0.101,0.786,0.154
		c0.509,0.103,1.013,0.216,1.517,0.336c0.316,0.074,0.632,0.153,0.947,0.233c0.362,0.094,0.72,0.191,1.081,0.293
		c0.458,0.128,0.914,0.262,1.37,0.404c0.176,0.056,0.355,0.114,0.532,0.171c0.635,0.206,1.267,0.424,1.893,0.653
		c0.086,0.033,0.173,0.064,0.259,0.099c0.716,0.266,1.423,0.55,2.125,0.85c0.03,0.013,0.056,0.024,0.084,0.037
		c2.244,0.962,4.419,2.089,6.513,3.376c0.03,0.018,0.062,0.037,0.093,0.056c0.591,0.365,1.175,0.743,1.754,1.133
		c0.128,0.088,0.257,0.172,0.384,0.26c0.391,0.269,0.776,0.542,1.158,0.822c0.31,0.227,0.617,0.453,0.922,0.687
		c0.25,0.189,0.498,0.379,0.742,0.575c0.425,0.336,0.846,0.683,1.261,1.034c0.179,0.151,0.356,0.303,0.534,0.455
		c0.463,0.403,0.918,0.815,1.37,1.236c0.124,0.115,0.248,0.23,0.37,0.349c0.479,0.455,0.951,0.92,1.416,1.398
		c0.049,0.049,0.1,0.096,0.148,0.147c0.1,0.101,0.195,0.207,0.292,0.31c0.095,0.098,0.19,0.199,0.282,0.298
		c0.199,0.213,0.396,0.426,0.592,0.642c0.072,0.082,0.146,0.163,0.22,0.244c0.218,0.244,0.435,0.49,0.648,0.739l0.12,0.14
		c0.248,0.292,0.492,0.584,0.734,0.878c7.582,9.273,11.717,20.815,11.717,32.947c0,0.058-0.003,0.115-0.003,0.171
		c-0.044,13.532-4.897,26.321-14.274,36.028C504.586,302.482,492,307.975,480,308.634V205.117
		C480,205.119,479.804,205.127,479.869,205.13z M533.152,260H553v74h-73v-20.032C508,312.612,531.812,289,533.152,260z M549.057,381
		l-33.174,37h-16.608l16.588-18.502L532.449,381H549.057z M499.275,339h16.608L549,375.586V376h-16.548l-0.003-0.105L499.275,339z
		 M508.732,399.498L492.146,418h-16.608l16.588-18.502L508.712,381h16.607L508.732,399.498z M484.995,399.498L468.407,418H451.8
		l16.587-18.502L484.973,381h16.608L484.995,399.498z M444.671,418h-16.609l33.174-37h16.607l-16.587,18.498L444.671,418z
		 M461.238,376l-33.175-37h16.607l33.175,37H461.238z M454.108,376h-16.607l-33.175-37h16.608L454.108,376z M454.107,381
		l-29.615,32.947L420.933,418h-16.609l33.177-37H454.107z M404.326,423h16.608l33.174,36h-16.607L404.326,423z M430.373,459H401
		v-31.758L430.371,459H430.373z M428.063,423h16.607l33.175,36h-16.607L428.063,423z M468.387,441.002L451.802,423h16.607l33.174,36
		h-16.607L468.387,441.002z M492.125,441.002L475.539,423h16.606l3.559,3.553L525.319,459h-16.605L492.125,441.002z M499.275,423
		h16.608L549,459.663V459h-16.548h-0.003L499.275,423z M553,385.125V418h-29.989L553,385.125z M523.013,339H553v32.423L523.013,339z
		 M492.146,339l3.559,4.052L525.319,376h-16.605l-16.589-18.5L475.539,339H492.146z M501.583,376h-16.607l-16.589-18.5L451.802,339
		h16.607L501.583,376z M425.399,256.876c0-27.684,21.601-50.368,48.601-51.759v103.517C447,307.242,425.399,284.559,425.399,256.876
		z M420.271,260c0.647,13,6.441,27.361,16.467,37.502C446.765,307.644,460,313.312,474,313.968V334h-73v-74H420.271z
		 M430.375,375.792L430.373,376H401v-32.993L430.375,375.792z M430.371,381l-29.355,32.537L401,413.54V381H430.371z M430.371,465
		L401,497.774V465H430.371z M437.501,465h16.606l-29.615,33.578L422.07,502h-16.608L437.501,465z M461.236,465h16.607l-32.035,37
		h-16.609L461.236,465z M484.995,465h16.587l-32.036,37h-16.588L484.995,465z M508.712,465h16.607l-16.587,19.131L493.284,502
		h-16.61L508.712,465z M515.863,484.131L532.449,465h16.607l-32.038,37h-16.605L515.863,484.131z M553,469.36V502h-28.851
		L553,469.36z M523.013,423H553v32.658L523.013,423z M558,534v-88h86v88H558z M621,440v-86h41v86H621z M650,478h28v29h-28V478z
		 M740.723,512l-1.228,1.27l-2.632,2.679l-17.92,18.147l-21.781,22.051l-20.461-20.709l-19.239-19.476l-2.632-2.692l-1.229-1.27
		H740.723z M722,507v-29h32v29H722z M840.555,512l-43.562,44.123l-21.779-22.032l-17.92-18.137l-2.631-2.688L753.434,512H840.555z
		 M838,507v-74h73v74H838z M911,296h-22v-23h22V296z M911,301v23h-22v-23H911z M911,329v19h-22v-19H911z M911,354v74h-19.219
		c0,0-0.001-0.332-0.003-0.344c-0.016-0.344-0.035-0.844-0.058-1.187c-0.009-0.118-0.016-0.315-0.022-0.435
		c-0.023-0.318-0.049-0.673-0.077-0.991c-0.012-0.144-0.024-0.31-0.039-0.453c-0.026-0.299-0.058-0.604-0.091-0.902
		c-0.019-0.166-0.037-0.336-0.056-0.502c-0.034-0.278-0.069-0.558-0.106-0.836c-0.024-0.186-0.049-0.374-0.077-0.559
		c-0.036-0.258-0.074-0.516-0.115-0.771c-0.033-0.209-0.068-0.42-0.104-0.629c-0.038-0.231-0.078-0.463-0.119-0.694
		c-0.046-0.245-0.094-0.492-0.14-0.738c-0.038-0.191-0.074-0.382-0.114-0.573c-0.063-0.312-0.132-0.621-0.201-0.932
		c-0.027-0.125-0.055-0.25-0.082-0.375c-1.957-8.521-5.837-16.478-11.398-23.303c-0.022-0.026-0.043-0.054-0.064-0.08
		c-0.217-0.267-0.438-0.528-0.66-0.791c-0.079-0.092-0.155-0.186-0.233-0.276c-0.143-0.166-0.287-0.327-0.432-0.491
		c-0.161-0.184-0.32-0.367-0.484-0.55c-0.002-0.004-0.005-0.008-0.009-0.011c-1.185-1.314-2.43-2.573-3.729-3.771
		c-0.001-0.004-0.006-0.007-0.009-0.01c-0.18-0.166-0.362-0.326-0.543-0.49c-0.162-0.145-0.321-0.291-0.486-0.436
		c-0.089-0.079-0.183-0.156-0.274-0.235c-0.259-0.225-0.519-0.45-0.782-0.67c-0.026-0.021-0.051-0.043-0.077-0.063
		c-6.747-5.625-14.612-9.551-23.039-11.531c-0.123-0.028-0.247-0.055-0.37-0.083c-0.305-0.069-0.611-0.138-0.92-0.205
		c-0.188-0.039-0.379-0.075-0.568-0.113c-0.243-0.049-0.485-0.097-0.729-0.142c-0.229-0.043-0.456-0.082-0.684-0.122
		c-0.208-0.036-0.415-0.071-0.623-0.104c-0.253-0.041-0.508-0.079-0.763-0.116c-0.183-0.027-0.366-0.054-0.552-0.078
		c-0.273-0.04-0.549-0.074-0.823-0.107c-0.163-0.021-0.327-0.039-0.491-0.058c-0.294-0.032-0.587-0.063-0.88-0.094
		c-0.144-0.012-0.287-0.025-0.432-0.039c-0.312-0.026-0.626-0.054-0.94-0.077c-0.117-0.01-0.236,0.008-0.353,0.001
		c-0.342-0.022-0.681-0.037-1.023-0.037c-0.008,0-0.004,0-0.004,0v-19H911z M883,344.57L809.66,273H883V344.57z M829,268h-87v-87h87
		V268z M779,54.476V100h-46.084C734.24,76,754,55.817,779,54.476z M773.754,52.255c0.232-0.033,0.461-0.076,0.692-0.105
		c0.019-0.001,0.034-0.001,0.051-0.005c0.392-0.049,0.784-0.094,1.181-0.137c0.139-0.013,0.276-0.023,0.415-0.038
		c0.276-0.026,0.551-0.053,0.829-0.074c0.185-0.016,0.371-0.025,0.557-0.039c0.037-0.002,0.074-0.004,0.111-0.008
		c-0.236,0.017-0.474,0.031-0.709,0.05c-0.121,0.01-0.242,0.022-0.365,0.033c-0.306,0.026-0.61,0.054-0.913,0.085
		c-0.011,0.002-0.021,0.002-0.031,0.004C774.961,52.085,774.357,52.168,773.754,52.255z M731.622,90.974
		c4.43-18.67,18.911-33.32,37.366-37.802C750.586,57.673,736.071,72.358,731.622,90.974z M779,106v45.571
		C753,150.233,734.235,130,732.914,106H779z M710,49.074V31h69v18.139C751,50.485,728.969,73,727.639,100H710V49.074z
		 M730.721,95.781c-0.085,0.604-0.166,1.21-0.229,1.823c0.037-0.356,0.075-0.713,0.12-1.067c0.001-0.016,0.004-0.032,0.006-0.05
		C730.647,96.25,730.688,96.017,730.721,95.781z M710,111.214L710,111.214V106h17.64c1.336,28,23.36,49.553,51.36,50.905V175h-69
		V111.214z M667.925,250h-22.412l37.527-69h22.412L667.925,250z M705,94.831l-0.238-0.002l-14.106-19.165L675.464,55H705V94.831z
		 M688.465,40.949c0-1.91,1.536-3.462,3.424-3.462c1.887,0,3.423,1.553,3.423,3.462c0,1.91-1.536,3.462-3.423,3.462
		C690.001,44.412,688.465,42.859,688.465,40.949z M452,31h123.254h0.223H705v19h-9.803c3.155-1,5.382-4.926,5.382-8.587
		c0-4.848-3.899-9.023-8.69-9.023c-4.792,0-8.692,4.292-8.692,9.139c0,3.662,2.228,7.472,5.382,8.472H670.44
		c0.303,0,0.599-0.733,0.883-0.893c2.679-1.5,4.498-4.617,4.498-7.927c0-4.847-3.898-8.907-8.69-8.907
		c-4.793,0-8.691,4.35-8.691,9.196c0,3.662,2.227,7.53,5.382,8.53h-19.323c3.155-1,5.381-4.926,5.381-8.587
		c0-4.848-3.898-9.023-8.69-9.023s-8.69,4.292-8.69,9.139c0,3.662,2.226,7.472,5.381,8.472h-18.138c3.154-1,5.381-4.926,5.381-8.587
		c0-4.848-3.899-9.023-8.69-9.023c-4.792,0-8.691,4.292-8.691,9.139c0,3.662,2.228,7.472,5.381,8.472h-19.323
		c1.003,0,1.909-1.488,2.681-2.235c0.027-0.025,0.055-0.279,0.082-0.304c1.613-1.599,2.619-3.937,2.619-6.396
		c0-4.847-3.898-8.85-8.691-8.85c-4.792,0-8.689,4.379-8.689,9.226c0,3.662,2.226,7.559,5.381,8.559h-18.14
		c3.155-1,5.382-4.926,5.382-8.587c0-4.848-3.897-9.023-8.69-9.023c-4.792,0-8.689,4.292-8.689,9.139
		c0,3.662,2.226,7.472,5.381,8.472h-18.139c3.153-1,5.381-4.926,5.381-8.587c0-4.848-3.899-9.023-8.69-9.023
		c-4.792,0-8.69,4.292-8.69,9.139c0,3.662,2.227,7.472,5.382,8.472h-19.323c3.152-1,5.38-4.926,5.38-8.587
		c0-4.848-3.898-9.023-8.689-9.023c-4.793,0-8.692,4.292-8.692,9.139c0,3.662,2.227,7.472,5.381,8.472h-18.138
		c3.156-1,5.382-4.926,5.382-8.587c0-4.848-3.899-9.023-8.692-9.023c-4.792,0-8.69,4.292-8.69,9.139
		c0,3.662,2.227,7.472,5.382,8.472h-19.323c3.154-1,5.382-4.926,5.382-8.587c0-4.848-3.9-9.023-8.693-9.023
		c-4.792,0-8.691,4.292-8.691,9.139c0,3.662,2.227,7.472,5.381,8.472H452V31z M452,59.93l13.841,19.286L480.757,100H452V59.93z
		 M452,106h14.258c-6.044,3-11.258,8.309-14.258,14.422V106z M484.613,106h2.634c18.27,1,32.921,15.81,32.921,34.461
		c0,19.097-15.36,34.565-34.238,34.565c-18.879,0-34.239-15.433-34.239-34.53C451.691,121.845,466.344,107,484.613,106z
		 M452,160.218c3,6.116,8.214,11.782,14.258,14.782H452V160.218z M355,31h92v32h-92V31z M396,263.971l-39.896-44.393L396,175.185
		V263.971z M356.104,117.01L396,72.616v88.787L356.104,117.01z M355,69h37.404L355,110.116V69z M355,123.901l39.896,44.393
		L355,212.685V123.901z M355,226.47l39.847,44.98L355.292,316H355V226.47z M396,277.754v88.788l-39.897-44.395L396,277.754z
		 M355,329.039l39.847,44.395l-6.441,7.193L355,417.824V329.039z M396,380.368v37.337l-1.048,2.639L393.275,422h-35.054
		l30.037-33.221L396,380.368z M355,428h41v31.442l0,0V502h-41V428z M355,507h198v4H439.104h0.013H355V507z M341,31h9v37.39l0,0V316
		h-9V31z M33,459v-41h67v41H33z M100,465v46H33v-46H100z M92,397.582V413H33v-60h14.239C48.563,377,67,396.245,92,397.582z
		 M166.493,154.207c-0.729-0.766-1.446-1.541-2.135-2.334c-0.057-0.066-0.113-0.128-0.17-0.193c-0.136-0.159-0.27-0.319-0.403-0.48
		c-0.201-0.239-0.403-0.478-0.6-0.718c-0.038-0.045-0.072-0.09-0.108-0.134c-6.855-8.425-11.407-18.389-13.295-29.043
		c-0.014-0.069-0.025-0.139-0.036-0.21c-0.075-0.427-0.146-0.854-0.211-1.283c-0.023-0.147-0.043-0.296-0.065-0.443
		c-0.051-0.355-0.102-0.709-0.147-1.065c-0.025-0.188-0.047-0.378-0.07-0.567c-0.039-0.318-0.075-0.634-0.107-0.954
		c-0.023-0.212-0.044-0.426-0.064-0.638c-0.03-0.3-0.055-0.599-0.079-0.898c-0.02-0.227-0.035-0.451-0.051-0.677
		c-0.021-0.292-0.041-0.584-0.055-0.877c-0.014-0.231-0.027-0.302-0.038-0.534c-0.004-0.105-0.013-0.158-0.016-0.158h22.851
		c0.019,0,0.049,0.388,0.071,0.663c0.026,0.287,0.046,0.498,0.077,0.784c0.039,0.363,0.089,0.684,0.136,1.043
		c0.038,0.292,0.073,0.568,0.118,0.859c0.05,0.326,0.115,0.636,0.172,0.961c0.262,1.45,0.595,2.871,1.006,4.262
		c0.028,0.092,0.05,0.184,0.077,0.275c0.146,0.477,0.304,0.946,0.463,1.415c0.042,0.119,0.079,0.239,0.12,0.357
		c0.167,0.471,0.345,0.934,0.528,1.395c0.043,0.109,0.084,0.222,0.129,0.331c0.19,0.47,0.392,0.933,0.6,1.396
		c0.041,0.092,0.082,0.186,0.125,0.279c0.218,0.475,0.446,0.943,0.681,1.409c0.036,0.071,0.072,0.142,0.108,0.212
		c0.249,0.483,0.506,0.961,0.773,1.435c0.023,0.041,0.046,0.083,0.07,0.122c0.285,0.5,0.579,0.993,0.884,1.478
		c0,0.001,0,0.001,0.002,0.003c3.178,5.063,7.431,9.368,12.437,12.583c0.001,0,0.001,0,0.003,0.002
		c0.48,0.309,0.967,0.604,1.461,0.893c0.04,0.023,0.081,0.047,0.12,0.07c0.468,0.271,0.94,0.531,1.419,0.784
		c0.069,0.037,0.139,0.072,0.21,0.107c0.459,0.239,0.922,0.47,1.393,0.69c0.091,0.043,0.184,0.084,0.277,0.126
		c0.456,0.21,0.915,0.415,1.379,0.607c0.109,0.046,0.219,0.087,0.328,0.131c0.457,0.184,0.916,0.365,1.378,0.533
		c0.117,0.042,0.236,0.08,0.353,0.12c0.466,0.165,0.931,0.325,1.401,0.47c0.091,0.028,0.184,0.051,0.275,0.078
		c1.376,0.415,2.785,0.752,4.218,1.018c0.319,0.06,0.638,0.123,0.96,0.175c0.288,0.044,0.579,0.08,0.869,0.118
		c0.356,0.05,0.712,0.1,1.07,0.139c0.284,0.031,0.542,0.052,0.828,0.077c0.27,0.024,0.783,0.055,0.783,0.073v23.115
		c0-0.005-0.18-0.013-0.285-0.016c-0.229-0.012-0.442-0.024-0.672-0.037c-0.289-0.018-0.571-0.035-0.859-0.057
		c-0.224-0.016-0.444-0.034-0.667-0.053c-0.297-0.024-0.59-0.051-0.885-0.08c-0.211-0.02-0.42-0.042-0.63-0.064
		c-0.316-0.033-0.629-0.07-0.941-0.109c-0.189-0.022-0.375-0.046-0.562-0.07c-0.351-0.046-0.702-0.098-1.052-0.149
		c-0.147-0.022-0.292-0.042-0.438-0.064c-0.426-0.067-0.846-0.139-1.269-0.214c-0.07-0.013-0.139-0.024-0.208-0.035
		c-10.534-1.912-20.383-6.515-28.711-13.45c-0.044-0.036-0.089-0.072-0.133-0.11c-0.238-0.198-0.473-0.403-0.708-0.605
		c-0.16-0.137-0.318-0.271-0.475-0.409c-0.064-0.058-0.126-0.113-0.19-0.17c-0.686-0.607-1.354-1.235-2.016-1.873
		C167.684,155.43,167.083,154.823,166.493,154.207z M167.8,159.204c-1.657-1.515-3.239-3.115-4.735-4.791
		c0.748,0.835,1.515,1.654,2.309,2.456C166.166,157.669,166.975,158.447,167.8,159.204z M208.715,46.461
		c0.105-0.004,0.285-0.012,0.285-0.017v23.113c0,0.019-0.513,0.052-0.783,0.074c-0.287,0.024-0.558,0.045-0.842,0.076
		c-0.358,0.041-0.706,0.09-1.063,0.138c-0.29,0.04-0.577,0.075-0.865,0.12c-0.322,0.052-0.64,0.116-0.959,0.173
		c-1.433,0.266-2.841,0.603-4.216,1.019c-0.092,0.027-0.185,0.052-0.276,0.079c-0.47,0.147-0.935,0.307-1.401,0.469
		c-0.116,0.04-0.235,0.079-0.352,0.12c-0.463,0.169-0.921,0.35-1.378,0.534c-0.109,0.045-0.219,0.086-0.328,0.13
		c-0.465,0.194-0.924,0.397-1.379,0.608c-0.093,0.042-0.186,0.084-0.277,0.126c-0.471,0.221-0.934,0.451-1.393,0.69
		c-0.071,0.036-0.141,0.072-0.21,0.109c-0.479,0.25-0.951,0.51-1.419,0.783c-0.039,0.022-0.08,0.047-0.12,0.071
		c-0.494,0.287-0.98,0.584-1.461,0.892c-0.002,0.003-0.002,0.003-0.003,0.003c-5.006,3.215-9.259,7.519-12.437,12.581
		c-0.002,0.001-0.002,0.004-0.002,0.004c-0.305,0.485-0.599,0.979-0.884,1.477c-0.023,0.041-0.046,0.082-0.07,0.124
		c-0.267,0.472-0.524,0.95-0.773,1.435c-0.036,0.07-0.072,0.14-0.108,0.21c-0.235,0.466-0.463,0.936-0.681,1.409
		c-0.043,0.094-0.085,0.188-0.125,0.281c-0.208,0.46-0.41,0.926-0.6,1.396c-0.045,0.11-0.086,0.22-0.129,0.33
		c-0.184,0.461-0.361,0.926-0.528,1.397c-0.041,0.117-0.077,0.235-0.12,0.355c-0.159,0.469-0.317,0.941-0.463,1.417
		c-0.027,0.093-0.049,0.186-0.077,0.277c-0.411,1.393-0.744,2.816-1.006,4.269c-0.058,0.323-0.122,0.645-0.172,0.972
		c-0.045,0.291-0.08,0.585-0.118,0.877c-0.047,0.36-0.098,0.722-0.136,1.084c-0.031,0.287-0.051,0.9-0.077,1.188
		c-0.022,0.273-0.053,0.146-0.071,1.146h-22.851c0.003,0,0.012-0.535,0.016-0.643c0.011-0.23,0.024-0.625,0.038-0.855
		c0.014-0.291,0.033-0.665,0.055-0.957c0.016-0.227,0.031-0.493,0.051-0.719c0.024-0.299,0.049-0.619,0.079-0.918
		c0.02-0.213,0.041-0.436,0.064-0.65c0.032-0.317,0.068-0.64,0.107-0.957c0.022-0.189,0.044-0.382,0.07-0.571
		c0.045-0.355,0.096-0.71,0.147-1.065c0.022-0.148,0.042-0.295,0.065-0.444c0.065-0.429,0.136-0.857,0.211-1.284
		c0.011-0.069,0.021-0.14,0.036-0.21c1.888-10.653,6.44-20.617,13.295-29.042c0.036-0.044,0.07-0.09,0.108-0.136
		c0.197-0.241,0.398-0.479,0.6-0.717c0.133-0.159,0.267-0.322,0.403-0.479c0.057-0.064,0.113-0.129,0.17-0.193
		c0.694-0.801,1.416-1.585,2.154-2.354c0.57-0.597,1.151-1.183,1.745-1.756c0.674-0.652,1.356-1.294,2.055-1.913
		c0.064-0.057,0.126-0.117,0.19-0.172c0.157-0.138,0.315-0.271,0.475-0.408c0.235-0.203,0.471-0.406,0.708-0.607
		c0.044-0.036,0.089-0.071,0.133-0.108c8.328-6.935,18.177-11.539,28.711-13.45c0.069-0.013,0.138-0.024,0.208-0.037
		c0.423-0.074,0.843-0.146,1.269-0.212c0.146-0.022,0.291-0.042,0.438-0.065c0.35-0.053,0.701-0.103,1.052-0.15
		c0.187-0.024,0.373-0.047,0.562-0.07c0.312-0.039,0.625-0.076,0.941-0.109c0.21-0.022,0.421-0.042,0.632-0.065
		c0.295-0.028,0.59-0.053,0.887-0.08c0.223-0.017,0.447-0.035,0.67-0.051c0.288-0.021,0.563-0.039,0.853-0.055
		C208.272,46.485,208.486,46.472,208.715,46.461z M208.538,145.083c-0.257-0.023-0.498-0.047-0.752-0.075
		c-0.287-0.033-0.564-0.072-0.85-0.111c-0.28-0.039-0.559-0.077-0.838-0.125c-0.232-0.037-0.461-0.082-0.691-0.124
		c-0.328-0.06-0.654-0.122-0.979-0.191c-0.127-0.028-0.253-0.06-0.379-0.089c-13.041-2.984-23.367-13.43-26.316-26.62
		c-0.029-0.129-0.061-0.255-0.087-0.384c-0.069-0.328-0.128-0.661-0.19-0.992c-0.042-0.233-0.086-0.465-0.124-0.7
		c-0.044-0.283-0.083-0.567-0.122-0.852c-0.04-0.289-0.079-0.577-0.109-0.867c-0.028-0.258-0.053-0.356-0.076-0.617
		c-0.015-0.164-0.037-0.336-0.049-0.336H209v32.133C209,145.12,208.702,145.098,208.538,145.083z M209.057,147.795
		c-0.284-0.021-0.569-0.041-0.852-0.068c-0.315-0.03-0.628-0.065-0.942-0.103c-0.027-0.005-0.057-0.008-0.084-0.012
		c0.347,0.043,0.695,0.083,1.042,0.117C208.5,147.754,208.78,147.774,209.057,147.795z M204.743,147.236
		c-0.037-0.007-0.074-0.013-0.109-0.02c-0.367-0.071-0.73-0.147-1.092-0.229c-0.106-0.024-0.211-0.05-0.317-0.074
		c0.029,0.006,0.058,0.013,0.086,0.02C203.784,147.043,204.263,147.144,204.743,147.236z M203.112,146.886
		c-0.066-0.016-0.133-0.03-0.199-0.046c-0.396-0.096-0.792-0.199-1.183-0.309c-0.164-0.046-0.326-0.092-0.488-0.14
		c-0.431-0.127-0.861-0.26-1.286-0.403c-0.111-0.037-0.222-0.075-0.334-0.114c-0.471-0.163-0.935-0.33-1.395-0.511
		c-0.058-0.022-0.112-0.044-0.169-0.066c-9.699-3.85-17.44-11.679-21.244-21.492c-0.022-0.056-0.044-0.11-0.066-0.167
		c-0.178-0.467-0.346-0.938-0.505-1.413c-0.039-0.113-0.077-0.225-0.113-0.338c-0.139-0.43-0.272-0.863-0.398-1.301
		c-0.046-0.164-0.092-0.328-0.138-0.492c-0.109-0.398-0.21-0.797-0.306-1.199c-0.017-0.07-0.031-0.139-0.046-0.207
		C178.488,132.588,189.368,143.597,203.112,146.886z M175.241,101.343c0.016-0.068,0.03-0.138,0.046-0.205
		c0.095-0.404,0.196-0.803,0.306-1.199c0.046-0.164,0.091-0.329,0.138-0.492c0.126-0.438,0.259-0.871,0.398-1.301
		c0.036-0.113,0.074-0.227,0.113-0.339c0.159-0.474,0.328-0.945,0.505-1.411c0.022-0.057,0.044-0.114,0.066-0.17
		c3.804-9.813,11.545-17.642,21.244-21.49c0.057-0.022,0.112-0.044,0.169-0.066c0.46-0.181,0.924-0.35,1.395-0.513
		c0.112-0.037,0.223-0.076,0.334-0.113c0.425-0.142,0.855-0.276,1.286-0.403c0.163-0.048,0.325-0.095,0.488-0.14
		c0.392-0.109,0.787-0.212,1.183-0.31c0.127-0.031,0.256-0.06,0.384-0.089c-0.06,0.013-0.119,0.028-0.178,0.043
		C189.374,76.431,178.49,87.44,175.241,101.343z M176.974,108c0.013-1,0.035-0.656,0.049-0.821c0.023-0.258,0.048-0.68,0.076-0.938
		c0.031-0.289,0.07-0.659,0.109-0.946c0.039-0.284,0.078-0.611,0.122-0.894c0.038-0.236,0.082-0.487,0.124-0.722
		c0.062-0.331,0.121-0.672,0.19-1c0.026-0.131,0.058-0.262,0.087-0.39c2.95-13.19,13.276-23.639,26.316-26.622
		c0.126-0.029,0.252-0.062,0.379-0.09c0.325-0.072,0.652-0.13,0.98-0.192c0.23-0.042,0.46-0.087,0.693-0.126
		c0.279-0.046,0.562-0.085,0.842-0.124c0.285-0.041,0.569-0.078,0.856-0.111c0.255-0.03,0.481-0.054,0.738-0.076
		c0.164-0.016,0.462-0.038,0.462-0.05V108H176.974z M206.458,72.512c-0.41,0.058-0.818,0.124-1.223,0.196
		c-0.161,0.029-0.321,0.056-0.48,0.086c-0.482,0.092-0.962,0.193-1.438,0.303c0.075-0.017,0.149-0.035,0.223-0.051
		c0.364-0.082,0.727-0.159,1.094-0.231c0.25-0.048,0.502-0.09,0.755-0.136c0.334-0.056,0.672-0.111,1.011-0.162
		c0.227-0.033,0.458-0.061,0.688-0.087C206.877,72.456,206.666,72.481,206.458,72.512z M174.808,116.544
		c-0.008-0.052-0.018-0.102-0.028-0.153c-0.057-0.339-0.11-0.68-0.158-1.022c0,0,0,0,0,0
		C174.679,115.762,174.74,116.155,174.808,116.544z M174.409,106.508c-0.026,0.278-0.045,0.561-0.065,0.844
		c-0.001,0.022-0.003,0.044-0.004,0.065c-0.017,0.258-0.035,0.517-0.046,0.774c0.012-0.245,0.027-0.491,0.044-0.735
		c0.002-0.035,0.003-0.07,0.006-0.104c0.018-0.288,0.04-0.577,0.066-0.862c0.03-0.321,0.064-0.637,0.102-0.952
		c0.002-0.03,0.006-0.059,0.011-0.086C174.48,105.803,174.44,106.153,174.409,106.508z M174.522,114.58
		c-0.004-0.028-0.008-0.055-0.011-0.085c-0.038-0.315-0.072-0.634-0.102-0.954c-0.026-0.286-0.048-0.573-0.066-0.861
		c0.02,0.282,0.039,0.564,0.065,0.845C174.44,113.878,174.48,114.229,174.522,114.58z M289,194v9H33v-9H289z M217.063,150.185
		c0.29-0.038,0.582-0.073,0.869-0.118c0.321-0.052,0.642-0.115,0.959-0.175c1.435-0.265,2.843-0.603,4.22-1.018
		c0.09-0.027,0.184-0.05,0.273-0.078c0.472-0.146,0.937-0.306,1.401-0.47c0.117-0.04,0.235-0.078,0.352-0.12
		c0.464-0.168,0.922-0.349,1.379-0.533c0.108-0.044,0.22-0.085,0.328-0.131c0.464-0.193,0.924-0.397,1.379-0.607
		c0.094-0.042,0.187-0.083,0.277-0.126c0.47-0.22,0.934-0.451,1.393-0.69c0.07-0.035,0.141-0.07,0.21-0.107
		c0.478-0.253,0.951-0.513,1.418-0.784c0.04-0.022,0.081-0.046,0.121-0.07c0.494-0.289,0.979-0.584,1.46-0.893
		c0.002-0.001,0.003-0.002,0.004-0.002c5.005-3.215,9.258-7.519,12.436-12.583c0.001-0.002,0.002-0.002,0.002-0.003
		c0.306-0.485,0.599-0.978,0.885-1.478c0.023-0.039,0.045-0.081,0.069-0.122c0.269-0.474,0.525-0.952,0.774-1.435
		c0.037-0.07,0.071-0.142,0.108-0.212c0.236-0.465,0.463-0.934,0.68-1.409c0.044-0.093,0.084-0.187,0.126-0.279
		c0.208-0.463,0.409-0.926,0.6-1.396c0.044-0.108,0.086-0.221,0.13-0.331c0.183-0.461,0.36-0.925,0.527-1.396
		c0.041-0.118,0.079-0.238,0.119-0.357c0.161-0.469,0.317-0.939,0.465-1.417c0.027-0.091,0.049-0.185,0.077-0.277
		c0.41-1.391,0.742-2.817,1.005-4.267c0.058-0.324,0.122-0.646,0.172-0.971c0.045-0.292,0.079-0.587,0.118-0.879
		c0.047-0.359,0.098-0.72,0.137-1.083c0.03-0.286,0.052-0.416,0.076-0.703c0.024-0.275,0.053-0.663,0.072-0.663h22.85
		c-0.003,0-0.011,0.052-0.016,0.158c-0.012,0.232-0.024,0.383-0.037,0.615c-0.016,0.292-0.035,0.545-0.056,0.836
		c-0.015,0.226-0.031,0.431-0.049,0.657c-0.026,0.3-0.051,0.588-0.08,0.888c-0.02,0.212-0.042,0.421-0.063,0.633
		c-0.034,0.32-0.07,0.634-0.107,0.952c-0.023,0.189-0.046,0.377-0.071,0.566c-0.045,0.356-0.095,0.71-0.147,1.065
		c-0.021,0.146-0.042,0.294-0.064,0.441c-0.065,0.429-0.137,0.856-0.21,1.283c-0.012,0.071-0.024,0.141-0.036,0.21
		c-1.89,10.654-6.441,20.618-13.296,29.043c-0.037,0.044-0.071,0.089-0.107,0.134c-0.198,0.24-0.399,0.479-0.6,0.718
		c-0.134,0.161-0.267,0.321-0.403,0.48c-0.057,0.065-0.113,0.127-0.168,0.193c-0.689,0.793-1.406,1.568-2.136,2.334
		c-0.588,0.617-1.191,1.223-1.804,1.816c-0.662,0.638-1.332,1.266-2.016,1.873c-0.063,0.057-0.126,0.112-0.189,0.17
		c-0.158,0.138-0.317,0.271-0.476,0.409c-0.236,0.202-0.471,0.407-0.709,0.605c-0.044,0.039-0.088,0.074-0.132,0.11
		c-8.328,6.935-18.179,11.538-28.712,13.45c-0.068,0.011-0.138,0.022-0.208,0.035c-0.421,0.076-0.844,0.147-1.27,0.214
		c-0.145,0.022-0.291,0.042-0.438,0.064c-0.35,0.051-0.701,0.104-1.052,0.149c-0.186,0.023-0.373,0.048-0.561,0.07
		c-0.313,0.039-0.626,0.076-0.943,0.109c-0.21,0.022-0.421,0.044-0.631,0.064c-0.295,0.029-0.591,0.056-0.887,0.08
		c-0.223,0.019-0.447,0.037-0.671,0.053c-0.288,0.021-0.577,0.039-0.866,0.057c-0.229,0.013-0.62,0.025-0.848,0.037
		c-0.104,0.003-0.477,0.011-0.477,0.016v-23.115c0-0.018,0.704-0.048,0.975-0.073c0.286-0.025,0.654-0.046,0.937-0.077
		C216.271,150.285,216.706,150.235,217.063,150.185z M216.932,147.519c0.404-0.057,0.806-0.122,1.207-0.193
		c-0.048,0.008-0.096,0.018-0.145,0.026c-0.335,0.058-0.672,0.113-1.01,0.16C216.967,147.515,216.949,147.517,216.932,147.519z
		 M218.628,147.238c0.481-0.093,0.961-0.194,1.436-0.303c-0.075,0.016-0.147,0.035-0.223,0.051c-0.361,0.083-0.726,0.16-1.093,0.23
		C218.709,147.223,218.668,147.229,218.628,147.238z M220.266,146.887c13.744-3.287,24.626-14.296,27.876-28.199
		c-0.017,0.069-0.028,0.136-0.046,0.205c-0.096,0.402-0.197,0.804-0.306,1.202c-0.045,0.163-0.091,0.327-0.139,0.489
		c-0.124,0.439-0.257,0.872-0.398,1.304c-0.037,0.111-0.074,0.223-0.111,0.333c-0.16,0.477-0.33,0.949-0.507,1.417
		c-0.021,0.056-0.042,0.109-0.064,0.164c-3.806,9.816-11.547,17.646-21.251,21.497c-0.053,0.02-0.106,0.042-0.161,0.063
		c-0.461,0.181-0.931,0.352-1.401,0.515c-0.109,0.037-0.219,0.075-0.329,0.11c-0.427,0.145-0.857,0.277-1.291,0.404
		c-0.16,0.048-0.321,0.094-0.482,0.14c-0.394,0.109-0.79,0.214-1.189,0.31C220.401,146.856,220.333,146.871,220.266,146.887z
		 M247.45,98.791c0.067,0.219,0.139,0.437,0.201,0.659c0.047,0.161,0.094,0.324,0.139,0.488c0.108,0.398,0.209,0.798,0.306,1.201
		c0.018,0.069,0.032,0.138,0.047,0.208C247.941,100.482,247.709,99.631,247.45,98.791z M248.973,113.525
		c0.027-0.28,0.044-0.563,0.064-0.845c-0.018,0.289-0.04,0.575-0.065,0.861c-0.029,0.32-0.065,0.638-0.102,0.954
		c-0.002,0.03-0.006,0.057-0.01,0.085C248.902,114.229,248.942,113.878,248.973,113.525z M248.86,105.451
		c0.004,0.027,0.008,0.057,0.01,0.086c0.037,0.315,0.073,0.631,0.102,0.952c0.025,0.286,0.048,0.574,0.065,0.862
		c-0.02-0.284-0.038-0.566-0.064-0.844C248.942,106.153,248.902,105.803,248.86,105.451z M249.043,107.435
		c0,0.007,0.001,0.014,0.001,0.022c0.017,0.245,0.031,0.49,0.044,0.735C249.077,107.94,249.06,107.687,249.043,107.435z
		 M260.318,154.413c-1.498,1.676-3.08,3.275-4.736,4.791c0.825-0.756,1.634-1.534,2.427-2.335
		C258.801,156.067,259.57,155.248,260.318,154.413z M214.614,178.897c0.26-0.011,0.599-0.024,0.854-0.039
		c0.307-0.018,0.654-0.039,0.958-0.059c0.251-0.017,0.52-0.035,0.769-0.056c0.318-0.026,0.648-0.056,0.967-0.087
		c0.23-0.022,0.465-0.042,0.696-0.068c0.352-0.037,0.706-0.08,1.057-0.122c0.193-0.023,0.387-0.045,0.579-0.071
		c0.428-0.056,0.854-0.118,1.28-0.182c0.113-0.017,0.226-0.032,0.338-0.048c12.611-1.961,24.386-7.463,34.117-15.988
		c0.018-0.016,0.036-0.031,0.054-0.047c0.25-0.219,0.494-0.441,0.741-0.665c0.97-0.876,1.921-1.779,2.848-2.717
		c0.925-0.936,1.818-1.898,2.684-2.879c0.221-0.249,0.442-0.497,0.658-0.749c0.017-0.018,0.031-0.036,0.045-0.056
		c8.428-9.841,13.868-21.751,15.805-34.508c0.017-0.116,0.033-0.232,0.05-0.348c0.062-0.429,0.123-0.858,0.177-1.29
		c0.026-0.193,0.047-0.389,0.07-0.584c0.042-0.354,0.085-0.708,0.121-1.064c0.023-0.233,0.044-0.468,0.068-0.701
		c0.03-0.323,0.058-0.644,0.084-0.966c0.021-0.251,0.037-0.504,0.055-0.757c0.021-0.31,0.042-0.618,0.059-0.928
		c0.013-0.26,0.026-0.36,0.038-0.62c0.006-0.154,0.018-0.299,0.023-0.299H289v76h-75v-10.08
		C214,178.914,214.465,178.904,214.614,178.897z M188,236v23h-26v-23H188z M162,231v-23h26v23H162z M188,264v23h-26v-23H188z
		 M188,293v23h-26v-23H188z M207.084,370.342l12.312,12.52L249.119,413h-84.072L207.084,370.342z M162,408.96v-85.044l42.042,42.525
		L162,408.96z M165.045,321h84.073l-42.034,42.522L165.045,321z M211,316h-18V208h18V316z M97,302.658V287h59v60h-14.92
		C139.759,324,120,303.995,97,302.658z M97,392.246V353h38.808C134.499,374,118,390.925,97,392.246z M97,347v-39.006
		C118,309.317,134.499,326,135.808,347H97z M123,229v14H97v-14H123z M97,224v-16h26v16H97z M123,248v15H97v-15H123z M123,268v14H97
		v-14H123z M129,282v-14h27v14H129z M129,263v-15h27v15H129z M129,243v-14h27v14H129z M129,224v-16h27v16H129z M92,208v74H33v-74H92
		z M92,307.994V347H52.514c0.021,0,0.057-0.431,0.084-0.761c0.025-0.27,0.042-0.426,0.069-0.695c0.051-0.477,0.114-0.892,0.18-1.363
		c0.028-0.2,0.049-0.376,0.08-0.577c0.207-1.358,0.48-2.681,0.813-3.994c0.03-0.115,0.065-0.224,0.095-0.341
		c0.142-0.537,0.289-1.067,0.45-1.594c0.051-0.163,0.105-0.321,0.158-0.484c0.152-0.478,0.31-0.956,0.479-1.427
		c0.062-0.173,0.129-0.345,0.194-0.518c0.171-0.455,0.346-0.909,0.531-1.358c0.072-0.172,0.146-0.342,0.219-0.512
		c0.192-0.447,0.39-0.89,0.595-1.329c0.076-0.162,0.155-0.323,0.234-0.485c0.215-0.444,0.438-0.883,0.668-1.318
		c0.078-0.147,0.158-0.295,0.238-0.442c0.245-0.448,0.496-0.889,0.755-1.326c0.076-0.127,0.152-0.257,0.228-0.384
		c0.278-0.457,0.565-0.908,0.86-1.354c0.066-0.099,0.13-0.202,0.198-0.301c0.323-0.481,0.658-0.954,0.999-1.421
		c0.044-0.058,0.086-0.12,0.131-0.18c2.385-3.217,5.214-6.076,8.393-8.491c0.06-0.045,0.121-0.086,0.179-0.131
		c0.461-0.347,0.928-0.685,1.404-1.01c0.098-0.069,0.199-0.134,0.297-0.202c0.441-0.296,0.887-0.588,1.338-0.869
		c0.126-0.079,0.253-0.154,0.381-0.232c0.431-0.261,0.866-0.516,1.31-0.762c0.146-0.081,0.292-0.162,0.438-0.241
		c0.43-0.233,0.863-0.458,1.303-0.677c0.158-0.08,0.318-0.159,0.48-0.237c0.433-0.208,0.871-0.408,1.311-0.601
		c0.17-0.074,0.339-0.151,0.508-0.221c0.443-0.189,0.893-0.366,1.343-0.537c0.17-0.066,0.341-0.134,0.513-0.197
		c0.465-0.172,0.937-0.33,1.412-0.483c0.16-0.052,0.319-0.111,0.479-0.161c0.521-0.162,1.05-0.311,1.581-0.454
		c0.114-0.031,0.228-0.068,0.345-0.1c1.296-0.335,2.619-0.61,3.96-0.82c0.2-0.032,0.398-0.052,0.599-0.081
		c0.465-0.067,0.934-0.132,1.402-0.182c0.268-0.028,0.771-0.046,1.038-0.069C91.111,308.05,91,308.016,92,307.994z M92,353v39.246
		C71,390.925,53.822,374,52.514,353H92z M97,413v-15.418C120,396.245,139.759,377,141.08,353H156v60H97z M106,478h146v33H106V478z
		 M106,473v-18h146v18H106z M106,450v-32h146v32H106z M222.698,378.894l-12.522-12.453L252,323.917v85.042L222.698,378.894z
		 M216,316V208h106v108h-63.89h-5.267H216z M261.836,413l42.04-42.521L345.909,413H261.836z M345.909,418L304,460.427v-0.076
		L261.835,418H345.909z M258,408.96v-85.044l42.04,42.525L258,408.96z M304,362.833L261.835,321h84.074L304,362.915V362.833z
		 M258,421.822l42.04,42.524L258,506.867V421.822z M303.875,468.297l41.99,42.566l0.044,0.137h-84.073L303.875,468.297z
		 M346.048,502.881L307.599,464h0.002h-0.002L350,421.825v85.042L346.048,502.881z M307.966,366.44L350,323.917v85.042
		L307.966,366.44z M327,31h9v285h-9V31z M295,31h27v29h-27V31z M295,65h27v30h-27V65z M295,100h27v31h-27V100z M295,137h27v30h-27
		V137z M322,172v31h-27v-31H322z M214,31h75v77h-9.19c-0.005-1-0.017-0.629-0.023-0.783c-0.012-0.26-0.025-0.683-0.038-0.943
		c-0.018-0.309-0.038-0.698-0.059-1.006c-0.018-0.253-0.034-0.546-0.055-0.797c-0.026-0.324-0.055-0.667-0.084-0.988
		c-0.024-0.234-0.044-0.478-0.068-0.71c-0.038-0.357-0.079-0.718-0.121-1.071c-0.023-0.193-0.044-0.392-0.07-0.587
		c-0.055-0.43-0.115-0.861-0.177-1.289c-0.018-0.117-0.033-0.233-0.05-0.35c-1.938-12.757-7.377-24.668-15.805-34.51
		c-0.015-0.017-0.029-0.035-0.045-0.053c-0.215-0.252-0.437-0.5-0.658-0.749c-0.866-0.981-1.759-1.944-2.684-2.881
		c-0.927-0.937-1.878-1.839-2.848-2.716c-0.247-0.222-0.491-0.445-0.741-0.665c-0.018-0.014-0.036-0.03-0.054-0.046
		c-9.731-8.524-21.503-14.027-34.115-15.988c-0.115-0.018-0.231-0.032-0.345-0.05c-0.423-0.064-0.849-0.125-1.273-0.18
		c-0.192-0.026-0.386-0.048-0.579-0.072c-0.35-0.043-0.701-0.084-1.052-0.122c-0.232-0.024-0.462-0.045-0.694-0.068
		c-0.318-0.03-0.636-0.059-0.955-0.085c-0.249-0.02-0.498-0.038-0.75-0.055c-0.303-0.022-0.61-0.042-0.917-0.06
		c-0.256-0.014-0.676-0.028-0.936-0.039c-0.149-0.007-0.614-0.018-0.614-0.023V31z M260.318,65.617
		c-0.748-0.833-1.517-1.652-2.309-2.453c-0.793-0.802-1.602-1.58-2.427-2.335C257.238,62.343,258.82,63.942,260.318,65.617z
		 M214,46.444c0,0.005,0.372,0.013,0.477,0.017c0.229,0.011,0.538,0.023,0.768,0.037c0.289,0.017,0.619,0.035,0.906,0.055
		c0.225,0.017,0.469,0.034,0.691,0.051c0.296,0.026,0.602,0.052,0.897,0.08c0.211,0.022,0.426,0.042,0.636,0.065
		c0.316,0.034,0.633,0.071,0.946,0.109c0.188,0.023,0.375,0.046,0.562,0.07c0.351,0.047,0.703,0.097,1.053,0.15
		c0.146,0.022,0.292,0.043,0.438,0.065c0.426,0.066,0.849,0.138,1.27,0.212c0.069,0.012,0.139,0.024,0.208,0.037
		c10.533,1.911,20.384,6.515,28.712,13.45c0.044,0.037,0.088,0.072,0.132,0.108c0.239,0.201,0.473,0.404,0.709,0.607
		c0.158,0.136,0.317,0.27,0.476,0.408c0.063,0.055,0.126,0.115,0.189,0.172c0.699,0.618,1.381,1.26,2.056,1.913
		c0.593,0.574,1.175,1.16,1.744,1.756c0.738,0.769,1.46,1.553,2.156,2.354c0.056,0.064,0.112,0.129,0.168,0.193
		c0.137,0.158,0.269,0.32,0.403,0.479c0.201,0.238,0.402,0.476,0.6,0.717c0.036,0.045,0.07,0.091,0.107,0.136
		c6.855,8.425,11.407,18.389,13.296,29.042c0.012,0.07,0.024,0.141,0.036,0.21c0.073,0.427,0.145,0.854,0.21,1.283
		c0.023,0.149,0.043,0.296,0.064,0.444c0.052,0.354,0.102,0.708,0.147,1.063c0.025,0.189,0.047,0.379,0.071,0.569
		c0.037,0.316,0.074,0.634,0.107,0.951c0.021,0.214,0.043,0.427,0.063,0.64c0.029,0.299,0.054,0.598,0.08,0.898
		c0.019,0.226,0.034,0.451,0.049,0.678c0.021,0.292,0.041,0.585,0.056,0.876c0.012,0.231,0.025,0.787,0.037,1.018
		c0.005,0.107,0.012,0.643,0.016,0.643h-22.85c-0.019-1-0.048-0.873-0.072-1.146c-0.024-0.288-0.046-0.738-0.076-1.024
		c-0.039-0.364-0.089-0.806-0.137-1.166c-0.039-0.292-0.072-0.628-0.118-0.918c-0.05-0.328-0.114-0.67-0.172-0.993
		c-0.263-1.452-0.595-2.886-1.005-4.278c-0.028-0.091-0.05-0.19-0.077-0.283c-0.147-0.476-0.304-0.949-0.465-1.418
		c-0.041-0.12-0.078-0.24-0.119-0.357c-0.167-0.47-0.345-0.936-0.527-1.397c-0.044-0.11-0.085-0.221-0.13-0.331
		c-0.191-0.47-0.392-0.936-0.6-1.396c-0.042-0.094-0.082-0.187-0.126-0.281c-0.217-0.474-0.444-0.943-0.68-1.409
		c-0.037-0.07-0.071-0.14-0.108-0.21c-0.249-0.485-0.505-0.963-0.774-1.435c-0.023-0.042-0.045-0.083-0.069-0.124
		c-0.286-0.498-0.579-0.991-0.885-1.477c0,0-0.001-0.003-0.002-0.004c-3.178-5.062-7.431-9.366-12.436-12.581
		c-0.001,0-0.002,0-0.004-0.003c-0.481-0.307-0.967-0.605-1.46-0.892c-0.041-0.024-0.082-0.049-0.121-0.071
		c-0.467-0.273-0.94-0.533-1.418-0.783c-0.069-0.037-0.14-0.073-0.21-0.109c-0.459-0.239-0.923-0.469-1.393-0.69
		c-0.091-0.042-0.184-0.084-0.277-0.126c-0.455-0.21-0.915-0.414-1.379-0.608c-0.108-0.044-0.22-0.085-0.328-0.13
		c-0.457-0.184-0.915-0.365-1.379-0.534c-0.117-0.041-0.235-0.08-0.352-0.12c-0.465-0.162-0.93-0.322-1.401-0.469
		c-0.089-0.027-0.184-0.052-0.273-0.079c-1.377-0.416-2.786-0.753-4.22-1.019c-0.318-0.057-0.638-0.122-0.959-0.173
		c-0.288-0.045-0.58-0.08-0.869-0.12c-0.357-0.048-0.712-0.097-1.071-0.138c-0.283-0.03-0.731-0.051-1.018-0.076
		c-0.271-0.022-0.975-0.055-0.975-0.074V46.444z M247.44,98.76c-3.927-12.672-14.295-22.535-27.177-25.614
		c0.069,0.014,0.136,0.03,0.203,0.046c0.399,0.097,0.795,0.201,1.189,0.31c0.162,0.044,0.322,0.091,0.482,0.139
		c0.434,0.127,0.864,0.262,1.291,0.404c0.11,0.037,0.219,0.076,0.329,0.113c0.471,0.162,0.94,0.333,1.401,0.513
		c0.055,0.022,0.107,0.042,0.161,0.064c9.704,3.848,17.445,11.679,21.251,21.496c0.022,0.055,0.042,0.109,0.064,0.165
		c0.178,0.468,0.347,0.941,0.507,1.417c0.037,0.111,0.074,0.222,0.111,0.334C247.319,98.348,247.377,98.556,247.44,98.76z
		 M220.063,73.098c-0.476-0.111-0.954-0.211-1.436-0.303c-0.159-0.03-0.318-0.058-0.479-0.086c-0.404-0.073-0.812-0.138-1.223-0.196
		c-0.198-0.029-0.397-0.053-0.596-0.077c0.218,0.026,0.437,0.053,0.655,0.083c0.338,0.05,0.674,0.105,1.011,0.162
		c0.252,0.045,0.504,0.087,0.752,0.136c0.369,0.072,0.733,0.149,1.095,0.231C219.917,73.063,219.989,73.081,220.063,73.098z
		 M215.177,72.304c0.316,0.03,0.628,0.066,0.943,0.104l0.084,0.011c-0.347-0.042-0.694-0.083-1.043-0.115
		c-0.277-0.025-0.557-0.046-0.835-0.065C214.609,72.257,214.895,72.279,215.177,72.304z M214,74.9c0,0.012,0.489,0.034,0.653,0.05
		c0.258,0.022,0.594,0.046,0.848,0.076c0.287,0.033,0.612,0.07,0.898,0.111c0.28,0.038,0.582,0.077,0.862,0.124
		c0.231,0.039,0.473,0.083,0.703,0.125c0.328,0.062,0.66,0.12,0.985,0.192c0.127,0.028,0.256,0.06,0.381,0.089
		c13.041,2.983,23.368,13.429,26.317,26.62c0.029,0.127,0.062,0.253,0.088,0.384c0.071,0.327,0.129,0.659,0.19,0.99
		c0.043,0.234,0.087,0.465,0.125,0.701c0.046,0.283,0.085,0.568,0.122,0.853c0.04,0.288,0.079,0.576,0.11,0.867
		c0.027,0.257,0.053,0.841,0.075,1.099c0.016,0.166,0.036-0.179,0.05,0.821H214V74.9z M214,113h32.408
		c-0.014,0-0.035,0.172-0.05,0.336c-0.022,0.261-0.047,0.438-0.075,0.698c-0.032,0.288-0.07,0.536-0.11,0.826
		c-0.037,0.284-0.076,0.549-0.122,0.832c-0.038,0.234-0.081,0.457-0.124,0.689c-0.061,0.332-0.119,0.66-0.19,0.988
		c-0.026,0.129-0.058,0.252-0.087,0.382c-2.95,13.19-13.276,23.634-26.316,26.618c-0.125,0.029-0.251,0.061-0.378,0.089
		c-0.326,0.069-0.652,0.13-0.98,0.19c-0.23,0.042-0.462,0.087-0.693,0.124c-0.28,0.048-0.562,0.086-0.843,0.125
		c-0.285,0.039-0.57,0.078-0.857,0.111c-0.254,0.028-0.671,0.052-0.929,0.075c-0.164,0.015-0.653,0.037-0.653,0.05V113z
		 M214.325,147.795c0.278-0.021,0.558-0.041,0.835-0.066c0.349-0.034,0.696-0.074,1.043-0.117l-0.084,0.012
		c-0.314,0.038-0.626,0.073-0.943,0.103C214.895,147.754,214.609,147.774,214.325,147.795c-0.023,0.002-0.047,0.003-0.071,0.004
		c0.001,0,0.003,0,0.004,0C214.28,147.797,214.304,147.797,214.325,147.795z M209.55,72.208c-0.143,0.007-0.286,0.017-0.427,0.026
		c-0.022,0.002-0.045,0.002-0.067,0.004c-0.277,0.019-0.557,0.04-0.836,0.065c-0.347,0.032-0.695,0.073-1.042,0.115
		c0.027-0.003,0.057-0.007,0.084-0.011c0.313-0.037,0.626-0.074,0.942-0.104c0.283-0.025,0.568-0.047,0.852-0.066
		c0.035-0.004,0.069-0.006,0.104-0.007C209.29,72.221,209.421,72.216,209.55,72.208z M134,31h75v10.112
		c0,0.005-0.274,0.016-0.424,0.023c-0.258,0.01-0.501,0.024-0.757,0.039c-0.307,0.017-0.605,0.037-0.91,0.06
		c-0.25,0.018-0.495,0.035-0.744,0.055c-0.321,0.026-0.637,0.055-0.955,0.085c-0.232,0.023-0.461,0.044-0.691,0.068
		c-0.352,0.037-0.703,0.078-1.054,0.122c-0.192,0.024-0.386,0.045-0.577,0.072c-0.426,0.055-0.851,0.116-1.273,0.18
		c-0.115,0.018-0.229,0.032-0.346,0.05c-12.611,1.961-24.385,7.464-34.114,15.988c-0.019,0.016-0.037,0.032-0.054,0.046
		c-0.249,0.22-0.494,0.443-0.74,0.665c-0.971,0.877-1.922,1.779-2.849,2.716c-0.925,0.937-1.819,1.9-2.685,2.881
		c-0.22,0.249-0.44,0.497-0.657,0.749c-0.015,0.018-0.03,0.035-0.045,0.053c-8.429,9.842-13.867,21.752-15.805,34.51
		c-0.017,0.114-0.033,0.227-0.05,0.341c-0.062,0.431-0.124,0.861-0.178,1.295c-0.026,0.195-0.047,0.389-0.071,0.583
		c-0.042,0.356-0.083,0.712-0.122,1.069c-0.022,0.231-0.044,0.464-0.066,0.696c-0.031,0.323-0.06,0.646-0.084,0.971
		c-0.021,0.251-0.038,0.503-0.056,0.756c-0.021,0.31-0.041,0.618-0.058,0.926c-0.013,0.261-0.026,0.846-0.038,1.105
		c-0.007,0.154-0.017-0.217-0.023,0.783H134V31z M134,113h9.572c0.007,0,0.017,0.146,0.023,0.299
		c0.012,0.26,0.025,0.442,0.038,0.702c0.017,0.31,0.037,0.579,0.058,0.887c0.018,0.253,0.036,0.485,0.056,0.737
		c0.025,0.323,0.053,0.635,0.084,0.958c0.022,0.231,0.044,0.46,0.066,0.691c0.038,0.358,0.08,0.709,0.122,1.066
		c0.023,0.194,0.044,0.388,0.071,0.581c0.054,0.434,0.115,0.864,0.178,1.295c0.018,0.114,0.033,0.228,0.05,0.34
		c1.938,12.758,7.376,24.668,15.805,34.509c0.015,0.02,0.03,0.038,0.045,0.056c0.217,0.253,0.438,0.5,0.657,0.749
		c0.866,0.981,1.76,1.943,2.685,2.879c0.927,0.938,1.878,1.841,2.849,2.717c0.246,0.223,0.491,0.446,0.74,0.665
		c0.018,0.015,0.035,0.031,0.052,0.046c9.731,8.526,21.505,14.028,34.117,15.989c0.113,0.016,0.226,0.031,0.339,0.048
		c0.424,0.064,0.851,0.126,1.279,0.182c0.191,0.025,0.383,0.047,0.576,0.071c0.352,0.042,0.703,0.084,1.057,0.122
		c0.229,0.026,0.458,0.046,0.687,0.068c0.32,0.031,0.639,0.061,0.96,0.087c0.249,0.021,0.498,0.039,0.748,0.056
		c0.305,0.02,0.611,0.041,0.917,0.059c0.256,0.015,0.485,0.028,0.743,0.039c0.15,0.007,0.424,0.017,0.424,0.023V189h-75V113z M88,31
		h41v158H88V31z M48,31h34v158H48V31z M33,31h10v158H33V31z M92,287v15.656c0,0.002-0.353,0.009-0.41,0.013
		c-0.672,0.041-1.459,0.092-2.123,0.16c-0.059,0.006-0.177,0.015-0.236,0.021c-0.618,0.067-1.265,0.146-1.875,0.236
		c-0.1,0.015-0.214,0.028-0.315,0.043c-0.589,0.091-1.183,0.198-1.765,0.31c-0.166,0.032-0.334,0.062-0.498,0.096
		c-0.53,0.111-1.058,0.231-1.581,0.356c-0.217,0.056-0.435,0.107-0.65,0.161c-0.475,0.123-0.949,0.255-1.419,0.392
		c-0.263,0.078-0.525,0.156-0.786,0.236c-0.425,0.132-0.845,0.27-1.264,0.414c-0.308,0.105-0.612,0.215-0.917,0.328
		c-0.208,0.075-0.413,0.156-0.62,0.235c-0.519,0.198-1.035,0.404-1.546,0.623c-0.1,0.042-0.202,0.086-0.3,0.129
		c-0.63,0.273-1.251,0.557-1.865,0.856c-0.019,0.008-0.035,0.018-0.052,0.025c-9.575,4.672-17.341,12.528-21.96,22.213
		c-0.007,0.017-0.015,0.033-0.024,0.054c-0.296,0.619-0.578,1.249-0.846,1.883c-0.044,0.101-0.087,0.204-0.129,0.305
		c-0.215,0.516-0.419,1.038-0.616,1.565c-0.079,0.207-0.157,0.415-0.232,0.626c-0.111,0.308-0.219,0.616-0.324,0.927
		c-0.142,0.423-0.277,0.85-0.409,1.279c-0.081,0.264-0.157,0.529-0.234,0.794c-0.136,0.476-0.265,0.955-0.386,1.436
		c-0.056,0.218-0.108,0.438-0.159,0.657c-0.125,0.529-0.245,1.061-0.352,1.596c-0.034,0.168-0.064,0.335-0.095,0.502
		c-0.113,0.589-0.217,1.182-0.308,1.778c-0.016,0.1-0.026,0.2-0.042,0.301c-0.088,0.619-0.167,1.243-0.233,1.867
		c-0.007,0.061-0.015,0.121-0.021,0.18c-0.067,0.672-0.118,1.121-0.158,1.8C47.248,347.111,47.24,347,47.237,347H33v-60H92z M45,608
		H33v-92h12V608z M76,608H51v-41h25V608z M76,562H51v-46h25V562z M107,608H81v-41h26V608z M107,562H81v-46h26V562z M137,608h-25v-41
		h25V608z M137,562h-25v-46h25V562z M142,516h32.989L142,597.341V516z M144.139,608l36.523-92h31.2l-36.523,92H144.139z M181.01,608
		l36.523-92h30.016l-36.524,92H181.01z M216.698,608l36.145-91.332l0.378-0.668h31.199l-36.522,92H216.698z M253.569,608l36.523-92
		h30.633l-36.522,92H253.569z M289.875,608l36.523-92h31.201l-0.013-0.256L321.077,608H289.875z M326.747,608l36.51-92.256
		L363.27,516h31.201l-0.014-0.256L357.947,608H326.747z M363.62,608l36.51-92.256l0.013,0.256h31.202l-0.015-0.256L394.819,608
		H363.62z M433,608h-32.509L433,527.163V608z M438.015,608c1.311-10,10.967-20.314,22.565-20.314
		c11.599,0,21.253,10.314,22.564,20.314H438.015z M483,594.704c-4-7.141-13.654-11.805-23-11.805c-9.345,0-17,4.664-23,11.805V562
		h46V594.704z M488.714,608c1.312-10,10.966-20.314,22.565-20.314c11.598,0,21.254,10.314,22.564,20.314H488.714z M534,594.704
		c-5-7.141-13.653-11.805-23-11.805c-9.347,0-18,4.664-23,11.805V562h46V594.704z M539.415,608c1.31-10,10.966-20.314,22.564-20.314
		c11.598,0,21.253,10.314,22.564,20.314H539.415z M584,594.704c-4-7.141-13.154-11.805-22.5-11.805s-17.5,4.664-22.5,11.805V562h45
		V594.704z M590.112,608c1.312-10,10.968-20.314,22.565-20.314S633.933,598,635.243,608H590.112z M635,594.704
		c-4-7.141-13.154-11.805-22.5-11.805s-17.5,4.664-22.5,11.805V562h45V594.704z M640,608v-41.647L682.37,608H640z M686,604.773
		L644.386,562H686V604.773z M650,558v-42.175l0.074,0.137l21.576,22.243L690.807,558H650z M691,608v-22.999L714.633,608H691z
		 M736,608h-13.919L691,577.466V562h15.073L736,593.659V608z M736,586.124L713.521,562H736V586.124z M742,608v-41.647L783.768,608
		H742z M787,604.773L745.785,562H787V604.773z M742.062,558h-38.544l21.779-22.422l19.013-19.431l2.633-2.756l0.136-0.186
		l0.137,0.116l2.632,2.649l19.012,19.241l18.634,18.864l3.069,3.604L742.062,558z M792,608v-41.647L834.468,608H792z M838,604.773
		L796.483,562H838V604.773z M843,608v-23.107L867.413,608H843z M890,608h-15.046L843,577.445V562h15.643L890,593.678V608z
		 M890,586.233L866.184,562H890V586.233z M803.347,558l43.561-44.097L890.47,558H803.347z M942,608h-23.872L942,584.893V608z
		 M942,577.445L910.586,608H895v-14.322L926.896,562H942V577.445z M948,608v-23.107L971.297,608H948z M994,608h-15.159L948,577.445
		V562h14.528l31.493,33H994V608z M994,587h0.021l-23.951-25H994V587z M994,553h0.021l-21.739-21.766l-15.326-15.394l-2.633-2.632
		L953.097,512H994V553z M968,507v-47h26v47H968z M994,455h0.021h-26.117h-43.012l69.129-35H994V455z M994,414.214l-0.154,0.002
		L916,453.024v-23.138L994.021,391H994V414.214z M994,384h0.021L916,423.943v-22.94L994.021,362H994V384z M994,356h0.021
		L916,395.062v-23.14L994.021,334H994V356z M994,327h0.021L916,365.981V343.04L994.021,304H994V327z M994,298h0.021L916,337.098
		v-23.136L994.021,276H994V298z M916,308.018V273h69.376L916,308.018z M994,268H835v-12h159V268z M995,35.157v0.002
		c0,0.911-1,1.787-1,2.623v0.002c0,0.256-0.32,0.5-0.49,0.749c0.172-0.254,0.178-0.509,0.337-0.771
		c0.507-0.834,1.153-1.708,1.153-2.616c0,0,0-0.001,0-0.002c0-0.43,0.333-0.865,0.476-1.309C995.333,34.282,995,34.724,995,35.157z"
		/>
	<path fill="#F8C411" d="M125.264,420.586c-7.333,0-13.301,6.037-13.301,13.453c0,7.42,5.968,13.452,13.301,13.452
		c7.333,0,13.299-6.032,13.299-13.452C138.563,426.623,132.597,420.586,125.264,420.586z M125.264,442.164
		c-4.43,0-8.032-3.645-8.032-8.125c0-4.479,3.603-8.125,8.032-8.125c4.428,0,8.032,3.646,8.032,8.125
		C133.296,438.52,129.692,442.164,125.264,442.164z"/>
	<path fill="#F8C411" d="M152.967,420.586c-7.333,0-13.3,6.037-13.3,13.453c0,7.42,5.966,13.452,13.3,13.452
		c7.334,0,13.3-6.032,13.3-13.452C166.268,426.623,160.301,420.586,152.967,420.586z M152.967,442.164
		c-4.429,0-8.032-3.645-8.032-8.125c0-4.479,3.603-8.125,8.032-8.125c4.43,0,8.033,3.646,8.033,8.125
		C161,438.52,157.397,442.164,152.967,442.164z"/>
	<path fill="#F8C411" d="M205.889,420.586c-6.527,0-11.968,4.784-13.085,11.064c-1.119-6.28-6.559-11.064-13.086-11.064
		c-7.333,0-13.301,6.037-13.301,13.453c0,7.42,5.968,13.452,13.301,13.452c6.527,0,11.967-4.781,13.086-11.062
		c1.118,6.281,6.559,11.062,13.085,11.062c7.334,0,13.299-6.032,13.299-13.452C219.188,426.623,213.223,420.586,205.889,420.586z
		 M179.717,442.164c-4.43,0-8.033-3.645-8.033-8.125c0-4.479,3.603-8.125,8.033-8.125s8.032,3.646,8.032,8.125
		C187.749,438.52,184.146,442.164,179.717,442.164z M205.889,442.164c-4.43,0-8.032-3.645-8.032-8.125
		c0-4.479,3.603-8.125,8.032-8.125c4.429,0,8.033,3.646,8.033,8.125C213.921,438.52,210.318,442.164,205.889,442.164z"/>
	<path fill="#F8C411" d="M233.592,420.586c-7.333,0-13.3,6.037-13.3,13.453c0,7.42,5.966,13.452,13.3,13.452
		c7.335,0,13.3-6.032,13.3-13.452C246.892,426.623,240.927,420.586,233.592,420.586z M233.592,442.164
		c-4.429,0-8.033-3.645-8.033-8.125c0-4.479,3.604-8.125,8.033-8.125c4.43,0,8.033,3.646,8.034,8.125
		C241.625,438.52,238.021,442.164,233.592,442.164z"/>
	<path fill="#F8C411" d="M125.552,481.196c-7.334,0-13.3,6.035-13.3,13.453s5.966,13.452,13.3,13.452
		c7.334,0,13.3-6.034,13.3-13.452S132.887,481.196,125.552,481.196z M125.552,502.772c-4.43,0-8.032-3.644-8.032-8.123
		c0-4.481,3.602-8.126,8.032-8.126c4.429,0,8.033,3.645,8.033,8.126C133.585,499.129,129.981,502.772,125.552,502.772z"/>
	<path fill="#F8C411" d="M153.256,481.196c-7.334,0-13.3,6.035-13.3,13.453s5.966,13.452,13.3,13.452
		c7.333,0,13.299-6.034,13.299-13.452S160.59,481.196,153.256,481.196z M153.256,502.772c-4.43,0-8.034-3.644-8.034-8.123
		c0-4.481,3.604-8.126,8.034-8.126c4.43,0,8.032,3.645,8.032,8.126C161.288,499.129,157.686,502.772,153.256,502.772z"/>
	<path fill="#F8C411" d="M206.178,481.196c-6.528,0-11.969,4.782-13.087,11.063c-1.117-6.281-6.558-11.063-13.085-11.063
		c-7.334,0-13.299,6.035-13.299,13.453s5.965,13.452,13.299,13.452c6.527,0,11.968-4.782,13.085-11.063
		c1.119,6.281,6.56,11.063,13.087,11.063c7.333,0,13.3-6.034,13.3-13.452S213.511,481.196,206.178,481.196z M180.005,502.772
		c-4.43,0-8.033-3.644-8.033-8.123c0-4.481,3.603-8.126,8.033-8.126c4.429,0,8.033,3.645,8.033,8.126
		C188.038,499.129,184.435,502.772,180.005,502.772z M206.178,502.772c-4.43,0-8.033-3.644-8.033-8.123
		c0-4.481,3.603-8.126,8.033-8.126c4.429,0,8.032,3.645,8.032,8.126C214.21,499.129,210.607,502.772,206.178,502.772z"/>
	<path fill="#F8C411" d="M233.882,481.196c-7.334,0-13.301,6.035-13.301,13.453s5.966,13.452,13.301,13.452
		c7.333,0,13.299-6.034,13.299-13.452S241.215,481.196,233.882,481.196z M233.882,502.772c-4.431,0-8.032-3.644-8.032-8.123
		c0-4.481,3.602-8.126,8.032-8.126c4.429,0,8.032,3.645,8.032,8.126C241.914,499.129,238.311,502.772,233.882,502.772z"/>
	<path fill="#F8C411" d="M951.442,72.703c-20.897,0-38.046,16.297-39.407,37.297H912v2.349V115h0.035
		c1.361,21,18.51,37.298,39.407,37.298c20.899,0,38.048-16.298,39.41-37.298H991v-2.651V110h-0.147
		C989.49,89,972.342,72.703,951.442,72.703z M975.22,137.239c-6.422,6.277-14.866,9.739-23.777,9.739
		c-8.909,0-17.354-3.463-23.776-9.74c-6.077-5.941-9.726-13.238-10.36-22.238h68.275C984.946,124,981.298,131.298,975.22,137.239z
		 M917.306,110c0.635-9,4.283-16.452,10.36-22.392c6.423-6.278,14.867-9.816,23.776-9.816c8.911,0,17.355,3.578,23.777,9.855
		c6.078,5.942,9.727,13.353,10.361,22.353H917.306z"/>
	<path fill="#F8C411" d="M65.389,37.798c-7.689,0-13.947,6.329-13.947,14.107c0,7.78,6.257,14.108,13.947,14.108
		c7.69,0,13.946-6.328,13.946-14.108C79.335,44.127,73.08,37.798,65.389,37.798z M65.389,60.685c-4.787,0-8.68-3.938-8.68-8.78
		c0-4.839,3.894-8.778,8.68-8.778c4.785,0,8.679,3.939,8.679,8.778C74.068,56.747,70.174,60.685,65.389,60.685z"/>
	<path fill="#F8C411" d="M65.389,67.52c-7.689,0-13.947,6.329-13.947,14.108c0,7.779,6.257,14.108,13.947,14.108
		c7.69,0,13.946-6.329,13.946-14.108C79.335,73.848,73.08,67.52,65.389,67.52z M65.389,90.408c-4.787,0-8.68-3.94-8.68-8.78
		c0-4.84,3.894-8.78,8.68-8.78c4.785,0,8.679,3.939,8.679,8.78C74.068,86.467,70.174,90.408,65.389,90.408z"/>
	<path fill="#F8C411" d="M79.335,110.324c0-7.777-6.256-14.107-13.946-14.107c-7.689,0-13.947,6.33-13.947,14.107
		c0,7.315,5.531,13.344,12.585,14.04c-7.054,0.695-12.585,6.726-12.585,14.041c0,7.778,6.257,14.107,13.947,14.107
		c7.69,0,13.946-6.33,13.946-14.107c0-7.315-5.531-13.345-12.584-14.041C73.805,123.668,79.335,117.639,79.335,110.324z
		 M74.068,138.404c0,4.84-3.895,8.778-8.679,8.778c-4.787,0-8.68-3.938-8.68-8.778c0-4.84,3.894-8.779,8.68-8.779
		C70.174,129.625,74.068,133.564,74.068,138.404z M65.389,119.105c-4.787,0-8.68-3.938-8.68-8.781c0-4.84,3.894-8.779,8.68-8.779
		c4.785,0,8.679,3.938,8.679,8.779C74.068,115.167,70.174,119.105,65.389,119.105z"/>
	<path fill="#F8C411" d="M65.389,154.019c-7.689,0-13.947,6.329-13.947,14.107c0,7.779,6.257,14.107,13.947,14.107
		c7.69,0,13.946-6.328,13.946-14.107C79.335,160.348,73.08,154.019,65.389,154.019z M65.389,176.905c-4.787,0-8.68-3.938-8.68-8.779
		c0-4.841,3.894-8.78,8.68-8.78c4.785,0,8.679,3.939,8.679,8.78C74.068,172.967,70.174,176.905,65.389,176.905z"/>
	<path fill="#F8C411" d="M3,1v638h1021V1H3z M1019,634H8V6h1011V634z"/>
</g>
</svg>
