<svg enable-background="new 0 0 66.006 65.339" height="65.339" viewBox="0 0 66.006 65.339" width="66.006" xmlns="http://www.w3.org/2000/svg"><circle cx="33.002" cy="32.669" fill="#fff" r="32.669"/><path d="m44.169 40.661h-39.21l.059-28.089h39.211z" fill="#ed1c24"/><path d="m9.551 16.79h30.146v20.42h-30.146z" fill="#f9c511"/><path d="m58.51 51.181h-40.177l-13.374-10.52h39.21z" fill="#ed1c24"/><g fill="#4bbfae"><path d="m17.812 43.034c.242.177.294.318.12.318h-2.276c-.176 0-.515-.142-.756-.318l-2.388-1.756c-.241-.178-.291-.32-.112-.32h2.273c.177 0 .512.143.752.32z"/><path d="m21.412 43.034c.242.177.293.318.119.318h-2.275c-.176 0-.514-.142-.757-.318l-2.387-1.756c-.242-.178-.29-.32-.114-.32h2.275c.176 0 .51.143.752.32z"/><path d="m24.922 43.034c.242.177.294.318.119.318h-2.275c-.176 0-.515-.142-.757-.318l-2.388-1.756c-.24-.178-.29-.32-.113-.32h2.274c.175 0 .511.143.751.32z"/><path d="m28.524 43.034c.239.177.293.318.116.318h-2.275c-.175 0-.517-.142-.757-.318l-2.387-1.756c-.241-.178-.29-.32-.113-.32h2.275c.176 0 .51.143.751.32z"/><path d="m32.143 43.034c.24.177.294.318.118.318h-2.275c-.176 0-.514-.142-.756-.318l-2.389-1.756c-.239-.178-.288-.32-.113-.32h2.275c.176 0 .51.143.752.32z"/><path d="m35.741 43.034c.242.177.295.318.119.318h-2.275c-.176 0-.515-.142-.756-.318l-2.387-1.756c-.241-.178-.291-.32-.114-.32h2.273c.179 0 .513.143.753.32z"/><path d="m39.253 43.034c.24.177.295.318.117.318h-2.275c-.176 0-.516-.142-.756-.318l-2.388-1.756c-.241-.178-.29-.32-.113-.32h2.276c.176 0 .509.143.75.32z"/><path d="m42.853 43.034c.24.177.294.318.117.318h-2.275c-.175 0-.514-.142-.756-.318l-2.389-1.756c-.24-.178-.288-.32-.113-.32h2.275c.177 0 .512.143.753.32z"/><path d="m22.504 46.468c.24.176.287.318.112.318h-2.275c-.176 0-.509-.143-.75-.318l-2.389-1.757c-.242-.177-.293-.32-.116-.32h2.274c.176 0 .513.144.755.32z"/><path d="m26.104 46.468c.24.176.288.318.113.318h-2.275c-.177 0-.511-.143-.75-.318l-2.39-1.757c-.242-.177-.293-.32-.117-.32h2.275c.177 0 .514.144.755.32z"/><path d="m29.615 46.468c.239.176.287.318.112.318h-2.275c-.176 0-.51-.143-.75-.318l-2.391-1.757c-.241-.177-.291-.32-.115-.32h2.275c.177 0 .513.144.754.32z"/><path d="m33.214 46.468c.24.176.289.318.113.318h-2.274c-.177 0-.511-.143-.751-.318l-2.389-1.757c-.242-.177-.293-.32-.117-.32h2.275c.176 0 .513.144.753.32z"/><path d="m36.836 46.468c.239.176.288.318.111.318h-2.274c-.178 0-.512-.143-.75-.318l-2.39-1.757c-.243-.177-.294-.32-.117-.32h2.275c.177 0 .513.144.755.32z"/><path d="m40.435 46.468c.24.176.287.318.111.318h-2.274c-.176 0-.511-.143-.75-.318l-2.388-1.757c-.243-.177-.293-.32-.117-.32h2.275c.176 0 .512.144.754.32z"/><path d="m43.944 46.468c.239.176.289.318.111.318h-2.271c-.179 0-.514-.143-.754-.318l-2.387-1.757c-.242-.177-.293-.32-.115-.32h2.272c.178 0 .514.144.755.32z"/><path d="m47.545 46.468c.239.176.288.318.112.318h-2.275c-.176 0-.511-.143-.75-.318l-2.39-1.757c-.241-.177-.292-.32-.115-.32h2.273c.177 0 .515.144.755.32z"/></g></svg>