<?xml version="1.0" encoding="utf-8"?>
<!-- Generator: Adobe Illustrator 16.0.0, SVG Export Plug-In . SVG Version: 6.00 Build 0)  -->
<!DOCTYPE svg PUBLIC "-//W3C//DTD SVG 1.1//EN" "http://www.w3.org/Graphics/SVG/1.1/DTD/svg11.dtd">
<svg version="1.1" id="Layer_1" xmlns="http://www.w3.org/2000/svg" xmlns:xlink="http://www.w3.org/1999/xlink" x="0px" y="0px"
	 width="66.006px" height="65.339px" viewBox="0 0 66.006 65.339" enable-background="new 0 0 66.006 65.339" xml:space="preserve">
<circle fill="#FFFFFF" cx="33.002" cy="32.669" r="32.669"/>
<circle fill="#F9C511" cx="33.36" cy="32.519" r="22.159"/>
<path fill="#ED1C24" d="M45.627,37.462c0,3.588-1.536,6.817-3.999,9.069c-2.181-2-5.076-3.217-8.269-3.217s-6.088,1.217-8.27,3.217
	c-2.463-2.252-3.998-5.481-3.998-9.069H45.627z"/>
<path fill="#4BBFAE" d="M20.03,31.209c0-4.009,1.936-7.262,4.324-7.262c2.39,0,4.326,3.253,4.326,7.262H20.03z"/>
<path fill="#4BBFAE" d="M36.978,31.209c0-4.009,1.936-7.262,4.324-7.262s4.325,3.253,4.325,7.262H36.978z"/>
<path fill="#ED1C24" d="M54.214,22.344c-0.395-3.103-3.764-3.055-6.24-3.103c-2.006-0.041-4.019-0.041-6.018,0.19
	c-2.365,0.274-5.285,0.771-6.93,2.675c-0.285,0.343-0.498,0.709-0.654,1.099h-3.015c-0.157-0.39-0.375-0.756-0.661-1.099
	c-1.645-1.903-4.564-2.4-6.932-2.675c-1.991-0.231-4.002-0.231-6.008-0.19c-2.483,0.048-5.854,0-6.242,3.103
	c-0.293,2.32,0.396,4.946,1.282,7.074c0.416,0.997,0.921,2.025,1.549,2.905c1.787,2.518,4.427,4.298,7.578,4.298
	c4.775,0,9.481-5.211,9.862-10.198h2.149c0.389,4.986,5.089,10.198,9.87,10.198c3.15,0,5.784-1.781,7.571-4.298
	c0.627-0.88,1.139-1.908,1.549-2.905C53.812,27.291,54.501,24.665,54.214,22.344z M29.175,26.847
	c-0.484,4.059-3.199,7.319-7.339,7.332c-5.075,0.021-7.681-6.091-7.667-10.285c0.006-2.251,2.77-2.195,4.598-2.23
	c1.473-0.034,2.96-0.034,4.425,0.137c1.789,0.204,4.278,0.431,5.553,1.861c0.149,0.163,0.232,0.354,0.286,0.553
	c0.088,0.334,0.096,0.709,0.138,1.044C29.235,25.79,29.243,26.323,29.175,26.847z M43.73,34.179
	c-4.146-0.013-6.854-3.273-7.347-7.332c-0.061-0.524-0.061-1.058,0.008-1.589c0.047-0.335,0.047-0.71,0.143-1.044
	c0.055-0.198,0.137-0.39,0.279-0.553c1.276-1.431,3.767-1.657,5.56-1.861c1.466-0.171,2.946-0.171,4.427-0.137
	c1.822,0.035,4.584-0.021,4.592,2.23C51.404,28.088,49.726,34.2,43.73,34.179z"/>
<path fill="#4BBFAE" d="M41.628,46.531c-2.181,1.99-5.076,3.207-8.269,3.207s-6.088-1.217-8.27-3.207
	c2.182-2,5.077-3.217,8.27-3.217S39.447,44.531,41.628,46.531z"/>
</svg>
