<svg enable-background="new 0 0 66.006 65.339" height="65.339" viewBox="0 0 66.006 65.339" width="66.006" xmlns="http://www.w3.org/2000/svg"><circle cx="33.002" cy="32.669" fill="#fff" r="32.669"/><path d="m15.417 11.123h35.747v42.182h-35.747z" fill="#ed1c24"/><path d="m20.172 14.234h26.366v34.271h-26.366z" fill="#f9c511"/><g fill="#4bbfae"><path d="m26.687 16.168-1.894-5.889h17.125l-1.895 5.889z"/><path d="m43.456 19.994c0 .449-.363.814-.813.814h-19.24c-.449 0-.813-.365-.813-.814 0-.449.364-.814.813-.814h19.24c.45 0 .813.365.813.814z"/><path d="m43.456 24.285c0 .451-.363.814-.813.814h-19.24c-.449 0-.813-.363-.813-.814 0-.449.364-.812.813-.812h19.24c.45 0 .813.363.813.812z"/><path d="m43.456 28.578c0 .451-.363.814-.813.814h-19.24c-.449 0-.813-.363-.813-.814 0-.449.364-.814.813-.814h19.24c.45 0 .813.365.813.814z"/></g></svg>