<?xml version="1.0" encoding="utf-8"?>
<!-- Generator: Adobe Illustrator 16.0.0, SVG Export Plug-In . SVG Version: 6.00 Build 0)  -->
<!DOCTYPE svg PUBLIC "-//W3C//DTD SVG 1.1//EN" "http://www.w3.org/Graphics/SVG/1.1/DTD/svg11.dtd">
<svg version="1.1" id="Layer_1" xmlns="http://www.w3.org/2000/svg" xmlns:xlink="http://www.w3.org/1999/xlink" x="0px" y="0px"
	 width="66.006px" height="65.339px" viewBox="0 0 66.006 65.339" enable-background="new 0 0 66.006 65.339" xml:space="preserve">
<circle fill="#FFFFFF" cx="33.002" cy="32.669" r="32.669"/>
<rect x="15.417" y="11.123" fill="#ED1C24" width="35.747" height="42.182"/>
<rect x="20.172" y="14.234" fill="#F9C511" width="26.366" height="34.271"/>
<polygon fill="#4BBFAE" points="26.687,16.168 24.793,10.279 41.918,10.279 40.023,16.168 "/>
<path fill="#4BBFAE" d="M43.456,19.994c0,0.449-0.363,0.814-0.813,0.814h-19.24c-0.449,0-0.813-0.365-0.813-0.814l0,0
	c0-0.449,0.364-0.814,0.813-0.814h19.24C43.093,19.18,43.456,19.545,43.456,19.994L43.456,19.994z"/>
<path fill="#4BBFAE" d="M43.456,24.285c0,0.451-0.363,0.814-0.813,0.814h-19.24c-0.449,0-0.813-0.363-0.813-0.814l0,0
	c0-0.449,0.364-0.812,0.813-0.812h19.24C43.093,23.473,43.456,23.836,43.456,24.285L43.456,24.285z"/>
<path fill="#4BBFAE" d="M43.456,28.578c0,0.451-0.363,0.814-0.813,0.814h-19.24c-0.449,0-0.813-0.363-0.813-0.814l0,0
	c0-0.449,0.364-0.814,0.813-0.814h19.24C43.093,27.764,43.456,28.129,43.456,28.578L43.456,28.578z"/>
</svg>
