<svg enable-background="new 0 0 66.006 65.339" height="65.339" viewBox="0 0 66.006 65.339" width="66.006" xmlns="http://www.w3.org/2000/svg"><circle cx="33.002" cy="32.669" fill="#fff" r="32.669"/><circle cx="33.36" cy="32.519" fill="#f9c511" r="22.159"/><path d="m45.627 37.462c0 3.588-1.536 6.817-3.999 9.069-2.181-2-5.076-3.217-8.269-3.217s-6.088 1.217-8.27 3.217c-2.463-2.252-3.998-5.481-3.998-9.069z" fill="#ed1c24"/><path d="m20.03 31.209c0-4.009 1.936-7.262 4.324-7.262 2.39 0 4.326 3.253 4.326 7.262z" fill="#4bbfae"/><path d="m36.978 31.209c0-4.009 1.936-7.262 4.324-7.262s4.325 3.253 4.325 7.262z" fill="#4bbfae"/><path d="m54.214 22.344c-.395-3.103-3.764-3.055-6.24-3.103-2.006-.041-4.019-.041-6.018.19-2.365.274-5.285.771-6.93 2.675-.285.343-.498.709-.654 1.099h-3.015c-.157-.39-.375-.756-.661-1.099-1.645-1.903-4.564-2.4-6.932-2.675-1.991-.231-4.002-.231-6.008-.19-2.483.048-5.854 0-6.242 3.103-.293 2.32.396 4.946 1.282 7.074.416.997.921 2.025 1.549 2.905 1.787 2.518 4.427 4.298 7.578 4.298 4.775 0 9.481-5.211 9.862-10.198h2.149c.389 4.986 5.089 10.198 9.87 10.198 3.15 0 5.784-1.781 7.571-4.298.627-.88 1.139-1.908 1.549-2.905.888-2.127 1.577-4.753 1.29-7.074zm-25.039 4.503c-.484 4.059-3.199 7.319-7.339 7.332-5.075.021-7.681-6.091-7.667-10.285.006-2.251 2.77-2.195 4.598-2.23 1.473-.034 2.96-.034 4.425.137 1.789.204 4.278.431 5.553 1.861.149.163.232.354.286.553.088.334.096.709.138 1.044.066.531.074 1.064.006 1.588zm14.555 7.332c-4.146-.013-6.854-3.273-7.347-7.332-.061-.524-.061-1.058.008-1.589.047-.335.047-.71.143-1.044.055-.198.137-.39.279-.553 1.276-1.431 3.767-1.657 5.56-1.861 1.466-.171 2.946-.171 4.427-.137 1.822.035 4.584-.021 4.592 2.23.012 4.195-1.666 10.307-7.662 10.286z" fill="#ed1c24"/><path d="m41.628 46.531c-2.181 1.99-5.076 3.207-8.269 3.207s-6.088-1.217-8.27-3.207c2.182-2 5.077-3.217 8.27-3.217s6.088 1.217 8.269 3.217z" fill="#4bbfae"/></svg>