<svg enable-background="new 0 0 66.006 65.339" height="65.339" viewBox="0 0 66.006 65.339" width="66.006" xmlns="http://www.w3.org/2000/svg"><circle cx="33.002" cy="32.669" fill="#fff" r="32.669"/><path d="m42.466 36.982c.499.509 5.114 13.291 5.114 13.291s-12.67-4.916-13.167-5.424l-21.854-22.374c-.499-.512-.284-1.527.478-2.271l5.293-5.169c.761-.746 1.784-.936 2.282-.427z" fill="#ed1c24"/><path d="m23.972 18.965h11.259v25.804h-11.259z" fill="#f9c511" transform="matrix(.7152 -.6989 .6989 .7152 -13.8417 29.7644)"/><g fill="#4bbfae"><path d="m15.646 21.385h11.258v4.053h-11.258z" transform="matrix(.7154 -.6987 .6987 .7154 -10.3032 21.5278)"/><path d="m42.132 48.137c2.871 1.143 5.443 2.141 5.443 2.141s-1.048-2.901-2.198-5.994c-1.126 1.235-2.226 2.519-3.245 3.853z"/></g></svg>