<?xml version="1.0" encoding="utf-8"?>
<!-- Generator: Adobe Illustrator 16.0.0, SVG Export Plug-In . SVG Version: 6.00 Build 0)  -->
<!DOCTYPE svg PUBLIC "-//W3C//DTD SVG 1.1//EN" "http://www.w3.org/Graphics/SVG/1.1/DTD/svg11.dtd">
<svg version="1.1" id="Layer_1" xmlns="http://www.w3.org/2000/svg" xmlns:xlink="http://www.w3.org/1999/xlink" x="0px" y="0px"
	 width="66.006px" height="65.339px" viewBox="0 0 66.006 65.339" enable-background="new 0 0 66.006 65.339" xml:space="preserve">
<circle fill="#FFFFFF" cx="33.002" cy="32.669" r="32.669"/>
<g>
	<path fill="#ED1C24" d="M42.466,36.982c0.499,0.509,5.114,13.291,5.114,13.291s-12.67-4.916-13.167-5.424L12.559,22.475
		c-0.499-0.512-0.284-1.527,0.478-2.271l5.293-5.169c0.761-0.746,1.784-0.936,2.282-0.427L42.466,36.982z"/>
	
		<rect x="23.972" y="18.965" transform="matrix(0.7152 -0.6989 0.6989 0.7152 -13.8417 29.7644)" fill="#F9C511" width="11.259" height="25.804"/>
	
		<rect x="15.646" y="21.385" transform="matrix(0.7154 -0.6987 0.6987 0.7154 -10.3032 21.5278)" fill="#4BBFAE" width="11.258" height="4.053"/>
	<path fill="#4BBFAE" d="M42.132,48.137c2.871,1.143,5.443,2.141,5.443,2.141s-1.048-2.901-2.198-5.994
		C44.251,45.519,43.151,46.803,42.132,48.137z"/>
</g>
</svg>
